<mxfile host="app.diagrams.net" agent="Mozilla/5.0 (Windows NT 10.0; Win64; x64) AppleWebKit/537.36 (KHTML, like Gecko) Chrome/135.0.0.0 Safari/537.36" version="26.2.14">
  <diagram name="Страница — 1" id="81DjTX1Zt05AeOksZ2re">
    <mxGraphModel dx="1889" dy="1277" grid="0" gridSize="10" guides="1" tooltips="1" connect="1" arrows="1" fold="1" page="0" pageScale="1" pageWidth="1169" pageHeight="1654" math="0" shadow="0">
      <root>
        <mxCell id="0" />
        <mxCell id="1" parent="0" />
        <mxCell id="TeYbG6EXB1Ewo-bh0uWP-93" value="Отправка сообщения" style="rounded=0;whiteSpace=wrap;html=1;" parent="1" vertex="1">
          <mxGeometry x="1331" y="801.5" width="140" height="90" as="geometry" />
        </mxCell>
        <mxCell id="TeYbG6EXB1Ewo-bh0uWP-94" value="" style="endArrow=none;html=1;rounded=0;exitX=0;exitY=0.25;exitDx=0;exitDy=0;entryX=0.159;entryY=0.009;entryDx=0;entryDy=0;entryPerimeter=0;" parent="1" source="TeYbG6EXB1Ewo-bh0uWP-93" target="TeYbG6EXB1Ewo-bh0uWP-93" edge="1">
          <mxGeometry width="50" height="50" relative="1" as="geometry">
            <mxPoint x="1257" y="911.5" as="sourcePoint" />
            <mxPoint x="1307" y="861.5" as="targetPoint" />
          </mxGeometry>
        </mxCell>
        <mxCell id="TeYbG6EXB1Ewo-bh0uWP-95" value="" style="endArrow=none;html=1;rounded=0;exitX=0;exitY=0.75;exitDx=0;exitDy=0;entryX=1;entryY=0.75;entryDx=0;entryDy=0;" parent="1" source="TeYbG6EXB1Ewo-bh0uWP-93" target="TeYbG6EXB1Ewo-bh0uWP-93" edge="1">
          <mxGeometry width="50" height="50" relative="1" as="geometry">
            <mxPoint x="1461" y="701.5" as="sourcePoint" />
            <mxPoint x="1511" y="651.5" as="targetPoint" />
          </mxGeometry>
        </mxCell>
        <mxCell id="TeYbG6EXB1Ewo-bh0uWP-96" value="" style="endArrow=none;html=1;rounded=0;exitX=0.5;exitY=1;exitDx=0;exitDy=0;" parent="1" source="TeYbG6EXB1Ewo-bh0uWP-93" edge="1">
          <mxGeometry width="50" height="50" relative="1" as="geometry">
            <mxPoint x="1401" y="888.5" as="sourcePoint" />
            <mxPoint x="1401" y="868.5" as="targetPoint" />
          </mxGeometry>
        </mxCell>
        <mxCell id="TeYbG6EXB1Ewo-bh0uWP-97" value="A3.1.1" style="text;html=1;align=center;verticalAlign=middle;whiteSpace=wrap;rounded=0;" parent="1" vertex="1">
          <mxGeometry x="1335" y="866.5" width="60" height="30" as="geometry" />
        </mxCell>
        <mxCell id="TeYbG6EXB1Ewo-bh0uWP-98" value="Правила зашифрования сообщения" style="rounded=0;whiteSpace=wrap;html=1;" parent="1" vertex="1">
          <mxGeometry x="1331" y="931.5" width="140" height="70" as="geometry" />
        </mxCell>
        <mxCell id="TeYbG6EXB1Ewo-bh0uWP-99" value="" style="endArrow=none;html=1;rounded=0;exitX=0;exitY=0.25;exitDx=0;exitDy=0;entryX=0.159;entryY=0.009;entryDx=0;entryDy=0;entryPerimeter=0;" parent="1" source="TeYbG6EXB1Ewo-bh0uWP-98" target="TeYbG6EXB1Ewo-bh0uWP-98" edge="1">
          <mxGeometry width="50" height="50" relative="1" as="geometry">
            <mxPoint x="1257" y="1041.5" as="sourcePoint" />
            <mxPoint x="1307" y="991.5" as="targetPoint" />
          </mxGeometry>
        </mxCell>
        <mxCell id="TeYbG6EXB1Ewo-bh0uWP-100" value="" style="endArrow=none;dashed=1;html=1;rounded=0;exitX=0.5;exitY=0;exitDx=0;exitDy=0;entryX=0.5;entryY=1;entryDx=0;entryDy=0;" parent="1" source="TeYbG6EXB1Ewo-bh0uWP-98" target="TeYbG6EXB1Ewo-bh0uWP-93" edge="1">
          <mxGeometry width="50" height="50" relative="1" as="geometry">
            <mxPoint x="1481" y="861.5" as="sourcePoint" />
            <mxPoint x="1531" y="811.5" as="targetPoint" />
          </mxGeometry>
        </mxCell>
        <mxCell id="TeYbG6EXB1Ewo-bh0uWP-101" value="Пользователь" style="rounded=0;whiteSpace=wrap;html=1;" parent="1" vertex="1">
          <mxGeometry x="1331" y="690.5" width="140" height="70" as="geometry" />
        </mxCell>
        <mxCell id="TeYbG6EXB1Ewo-bh0uWP-102" value="" style="endArrow=none;html=1;rounded=0;exitX=0;exitY=0.25;exitDx=0;exitDy=0;entryX=0.159;entryY=0.009;entryDx=0;entryDy=0;entryPerimeter=0;" parent="1" source="TeYbG6EXB1Ewo-bh0uWP-101" target="TeYbG6EXB1Ewo-bh0uWP-101" edge="1">
          <mxGeometry width="50" height="50" relative="1" as="geometry">
            <mxPoint x="1257" y="791.5" as="sourcePoint" />
            <mxPoint x="1307" y="741.5" as="targetPoint" />
          </mxGeometry>
        </mxCell>
        <mxCell id="TeYbG6EXB1Ewo-bh0uWP-103" value="" style="endArrow=none;dashed=1;html=1;rounded=0;exitX=0.5;exitY=0;exitDx=0;exitDy=0;entryX=0.5;entryY=1;entryDx=0;entryDy=0;" parent="1" edge="1">
          <mxGeometry width="50" height="50" relative="1" as="geometry">
            <mxPoint x="1400.8" y="801.5" as="sourcePoint" />
            <mxPoint x="1400.8" y="761.5" as="targetPoint" />
          </mxGeometry>
        </mxCell>
        <mxCell id="TeYbG6EXB1Ewo-bh0uWP-104" value="" style="rounded=0;whiteSpace=wrap;html=1;" parent="1" vertex="1">
          <mxGeometry x="1529" y="826.5" width="40" height="40" as="geometry" />
        </mxCell>
        <mxCell id="TeYbG6EXB1Ewo-bh0uWP-105" value="" style="endArrow=none;html=1;rounded=0;exitX=0.25;exitY=1;exitDx=0;exitDy=0;entryX=0.25;entryY=0;entryDx=0;entryDy=0;" parent="1" source="TeYbG6EXB1Ewo-bh0uWP-104" target="TeYbG6EXB1Ewo-bh0uWP-104" edge="1">
          <mxGeometry width="50" height="50" relative="1" as="geometry">
            <mxPoint x="1589" y="841.5" as="sourcePoint" />
            <mxPoint x="1639" y="791.5" as="targetPoint" />
          </mxGeometry>
        </mxCell>
        <mxCell id="TeYbG6EXB1Ewo-bh0uWP-106" value="&lt;font face=&quot;Times New Roman&quot;&gt;&lt;span style=&quot;font-size: 15px;&quot;&gt;&lt;b&gt;O&lt;/b&gt;&lt;/span&gt;&lt;/font&gt;" style="text;html=1;align=center;verticalAlign=middle;whiteSpace=wrap;rounded=0;" parent="1" vertex="1">
          <mxGeometry x="1543" y="831.5" width="20" height="30" as="geometry" />
        </mxCell>
        <mxCell id="TeYbG6EXB1Ewo-bh0uWP-107" value="" style="endArrow=classic;html=1;rounded=0;exitX=1;exitY=0.5;exitDx=0;exitDy=0;entryX=0;entryY=0.5;entryDx=0;entryDy=0;" parent="1" source="TeYbG6EXB1Ewo-bh0uWP-93" target="TeYbG6EXB1Ewo-bh0uWP-104" edge="1">
          <mxGeometry width="50" height="50" relative="1" as="geometry">
            <mxPoint x="1661" y="841.5" as="sourcePoint" />
            <mxPoint x="1711" y="791.5" as="targetPoint" />
            <Array as="points">
              <mxPoint x="1501" y="846.5" />
            </Array>
          </mxGeometry>
        </mxCell>
        <mxCell id="TeYbG6EXB1Ewo-bh0uWP-108" value="Написание сообщения" style="rounded=0;whiteSpace=wrap;html=1;" parent="1" vertex="1">
          <mxGeometry x="1611" y="690.5" width="140" height="90" as="geometry" />
        </mxCell>
        <mxCell id="TeYbG6EXB1Ewo-bh0uWP-109" value="" style="endArrow=none;html=1;rounded=0;exitX=0;exitY=0.25;exitDx=0;exitDy=0;entryX=0.159;entryY=0.009;entryDx=0;entryDy=0;entryPerimeter=0;" parent="1" source="TeYbG6EXB1Ewo-bh0uWP-108" target="TeYbG6EXB1Ewo-bh0uWP-108" edge="1">
          <mxGeometry width="50" height="50" relative="1" as="geometry">
            <mxPoint x="1537" y="800.5" as="sourcePoint" />
            <mxPoint x="1587" y="750.5" as="targetPoint" />
          </mxGeometry>
        </mxCell>
        <mxCell id="TeYbG6EXB1Ewo-bh0uWP-110" value="" style="endArrow=none;html=1;rounded=0;exitX=0;exitY=0.75;exitDx=0;exitDy=0;entryX=1;entryY=0.75;entryDx=0;entryDy=0;" parent="1" source="TeYbG6EXB1Ewo-bh0uWP-108" target="TeYbG6EXB1Ewo-bh0uWP-108" edge="1">
          <mxGeometry width="50" height="50" relative="1" as="geometry">
            <mxPoint x="1741" y="590.5" as="sourcePoint" />
            <mxPoint x="1791" y="540.5" as="targetPoint" />
          </mxGeometry>
        </mxCell>
        <mxCell id="TeYbG6EXB1Ewo-bh0uWP-111" value="" style="endArrow=none;html=1;rounded=0;exitX=0.5;exitY=1;exitDx=0;exitDy=0;" parent="1" source="TeYbG6EXB1Ewo-bh0uWP-108" edge="1">
          <mxGeometry width="50" height="50" relative="1" as="geometry">
            <mxPoint x="1681" y="777.5" as="sourcePoint" />
            <mxPoint x="1681" y="757.5" as="targetPoint" />
          </mxGeometry>
        </mxCell>
        <mxCell id="TeYbG6EXB1Ewo-bh0uWP-112" value="A3.1.2" style="text;html=1;align=center;verticalAlign=middle;whiteSpace=wrap;rounded=0;" parent="1" vertex="1">
          <mxGeometry x="1615" y="755.5" width="60" height="30" as="geometry" />
        </mxCell>
        <mxCell id="TeYbG6EXB1Ewo-bh0uWP-113" value="Выбор стикера" style="rounded=0;whiteSpace=wrap;html=1;" parent="1" vertex="1">
          <mxGeometry x="1611" y="906.5" width="140" height="90" as="geometry" />
        </mxCell>
        <mxCell id="TeYbG6EXB1Ewo-bh0uWP-114" value="" style="endArrow=none;html=1;rounded=0;exitX=0;exitY=0.25;exitDx=0;exitDy=0;entryX=0.159;entryY=0.009;entryDx=0;entryDy=0;entryPerimeter=0;" parent="1" source="TeYbG6EXB1Ewo-bh0uWP-113" target="TeYbG6EXB1Ewo-bh0uWP-113" edge="1">
          <mxGeometry width="50" height="50" relative="1" as="geometry">
            <mxPoint x="1537" y="1016.5" as="sourcePoint" />
            <mxPoint x="1587" y="966.5" as="targetPoint" />
          </mxGeometry>
        </mxCell>
        <mxCell id="TeYbG6EXB1Ewo-bh0uWP-115" value="" style="endArrow=none;html=1;rounded=0;exitX=0;exitY=0.75;exitDx=0;exitDy=0;entryX=1;entryY=0.75;entryDx=0;entryDy=0;" parent="1" source="TeYbG6EXB1Ewo-bh0uWP-113" target="TeYbG6EXB1Ewo-bh0uWP-113" edge="1">
          <mxGeometry width="50" height="50" relative="1" as="geometry">
            <mxPoint x="1741" y="806.5" as="sourcePoint" />
            <mxPoint x="1791" y="756.5" as="targetPoint" />
          </mxGeometry>
        </mxCell>
        <mxCell id="TeYbG6EXB1Ewo-bh0uWP-116" value="" style="endArrow=none;html=1;rounded=0;exitX=0.5;exitY=1;exitDx=0;exitDy=0;" parent="1" source="TeYbG6EXB1Ewo-bh0uWP-113" edge="1">
          <mxGeometry width="50" height="50" relative="1" as="geometry">
            <mxPoint x="1681" y="993.5" as="sourcePoint" />
            <mxPoint x="1681" y="973.5" as="targetPoint" />
          </mxGeometry>
        </mxCell>
        <mxCell id="TeYbG6EXB1Ewo-bh0uWP-117" value="A3.1.3" style="text;html=1;align=center;verticalAlign=middle;whiteSpace=wrap;rounded=0;" parent="1" vertex="1">
          <mxGeometry x="1615" y="971.5" width="60" height="30" as="geometry" />
        </mxCell>
        <mxCell id="TeYbG6EXB1Ewo-bh0uWP-118" value="" style="endArrow=classic;html=1;rounded=0;exitX=0.75;exitY=0;exitDx=0;exitDy=0;entryX=0;entryY=0.5;entryDx=0;entryDy=0;" parent="1" source="TeYbG6EXB1Ewo-bh0uWP-104" target="TeYbG6EXB1Ewo-bh0uWP-108" edge="1">
          <mxGeometry width="50" height="50" relative="1" as="geometry">
            <mxPoint x="1661" y="841.5" as="sourcePoint" />
            <mxPoint x="1711" y="791.5" as="targetPoint" />
            <Array as="points">
              <mxPoint x="1559" y="735.5" />
            </Array>
          </mxGeometry>
        </mxCell>
        <mxCell id="TeYbG6EXB1Ewo-bh0uWP-119" value="" style="endArrow=classic;html=1;rounded=0;exitX=0.75;exitY=0;exitDx=0;exitDy=0;entryX=0;entryY=0.5;entryDx=0;entryDy=0;" parent="1" edge="1">
          <mxGeometry width="50" height="50" relative="1" as="geometry">
            <mxPoint x="1559" y="866.5" as="sourcePoint" />
            <mxPoint x="1611" y="957.5" as="targetPoint" />
            <Array as="points">
              <mxPoint x="1559" y="957.5" />
            </Array>
          </mxGeometry>
        </mxCell>
        <mxCell id="TeYbG6EXB1Ewo-bh0uWP-125" value="" style="rounded=0;whiteSpace=wrap;html=1;" parent="1" vertex="1">
          <mxGeometry x="1830" y="826.5" width="40" height="40" as="geometry" />
        </mxCell>
        <mxCell id="TeYbG6EXB1Ewo-bh0uWP-126" value="" style="endArrow=none;html=1;rounded=0;exitX=0.25;exitY=1;exitDx=0;exitDy=0;entryX=0.25;entryY=0;entryDx=0;entryDy=0;" parent="1" source="TeYbG6EXB1Ewo-bh0uWP-125" target="TeYbG6EXB1Ewo-bh0uWP-125" edge="1">
          <mxGeometry width="50" height="50" relative="1" as="geometry">
            <mxPoint x="1890" y="841.5" as="sourcePoint" />
            <mxPoint x="1940" y="791.5" as="targetPoint" />
          </mxGeometry>
        </mxCell>
        <mxCell id="TeYbG6EXB1Ewo-bh0uWP-127" value="&lt;font face=&quot;Times New Roman&quot;&gt;&lt;span style=&quot;font-size: 15px;&quot;&gt;&lt;b&gt;O&lt;/b&gt;&lt;/span&gt;&lt;/font&gt;" style="text;html=1;align=center;verticalAlign=middle;whiteSpace=wrap;rounded=0;" parent="1" vertex="1">
          <mxGeometry x="1844" y="831.5" width="20" height="30" as="geometry" />
        </mxCell>
        <mxCell id="TeYbG6EXB1Ewo-bh0uWP-128" value="" style="endArrow=classic;html=1;rounded=0;exitX=1;exitY=0.5;exitDx=0;exitDy=0;entryX=0.5;entryY=0;entryDx=0;entryDy=0;" parent="1" source="TeYbG6EXB1Ewo-bh0uWP-108" target="TeYbG6EXB1Ewo-bh0uWP-125" edge="1">
          <mxGeometry width="50" height="50" relative="1" as="geometry">
            <mxPoint x="1822" y="725" as="sourcePoint" />
            <mxPoint x="1770" y="816" as="targetPoint" />
            <Array as="points">
              <mxPoint x="1851" y="735.5" />
            </Array>
          </mxGeometry>
        </mxCell>
        <mxCell id="TeYbG6EXB1Ewo-bh0uWP-130" value="" style="endArrow=classic;html=1;rounded=0;exitX=1;exitY=0.5;exitDx=0;exitDy=0;entryX=0.5;entryY=0;entryDx=0;entryDy=0;" parent="1" edge="1">
          <mxGeometry width="50" height="50" relative="1" as="geometry">
            <mxPoint x="1752" y="957.5" as="sourcePoint" />
            <mxPoint x="1851" y="866.5" as="targetPoint" />
            <Array as="points">
              <mxPoint x="1852" y="957.5" />
            </Array>
          </mxGeometry>
        </mxCell>
        <mxCell id="TeYbG6EXB1Ewo-bh0uWP-131" value="&lt;font face=&quot;Times New Roman&quot;&gt;&lt;span style=&quot;font-size: 15px;&quot;&gt;&lt;b&gt;J5&lt;/b&gt;&lt;/span&gt;&lt;/font&gt;" style="text;html=1;align=center;verticalAlign=middle;whiteSpace=wrap;rounded=0;" parent="1" vertex="1">
          <mxGeometry x="1572" y="856.5" width="20" height="30" as="geometry" />
        </mxCell>
        <mxCell id="TeYbG6EXB1Ewo-bh0uWP-132" value="&lt;font face=&quot;Times New Roman&quot;&gt;&lt;span style=&quot;font-size: 15px;&quot;&gt;&lt;b&gt;J6&lt;/b&gt;&lt;/span&gt;&lt;/font&gt;" style="text;html=1;align=center;verticalAlign=middle;whiteSpace=wrap;rounded=0;" parent="1" vertex="1">
          <mxGeometry x="1872" y="856.5" width="20" height="30" as="geometry" />
        </mxCell>
        <mxCell id="TeYbG6EXB1Ewo-bh0uWP-133" value="" style="endArrow=classic;html=1;rounded=0;exitX=1;exitY=0.5;exitDx=0;exitDy=0;entryX=0;entryY=0.5;entryDx=0;entryDy=0;" parent="1" source="TeYbG6EXB1Ewo-bh0uWP-125" edge="1">
          <mxGeometry width="50" height="50" relative="1" as="geometry">
            <mxPoint x="1661" y="841.5" as="sourcePoint" />
            <mxPoint x="1951" y="846.5" as="targetPoint" />
          </mxGeometry>
        </mxCell>
        <mxCell id="TeYbG6EXB1Ewo-bh0uWP-136" value="Отправка сообщения" style="rounded=0;whiteSpace=wrap;html=1;" parent="1" vertex="1">
          <mxGeometry x="1951.5" y="801.5" width="140" height="90" as="geometry" />
        </mxCell>
        <mxCell id="TeYbG6EXB1Ewo-bh0uWP-137" value="" style="endArrow=none;html=1;rounded=0;exitX=0;exitY=0.25;exitDx=0;exitDy=0;entryX=0.159;entryY=0.009;entryDx=0;entryDy=0;entryPerimeter=0;" parent="1" source="TeYbG6EXB1Ewo-bh0uWP-136" target="TeYbG6EXB1Ewo-bh0uWP-136" edge="1">
          <mxGeometry width="50" height="50" relative="1" as="geometry">
            <mxPoint x="1877.5" y="911.5" as="sourcePoint" />
            <mxPoint x="1927.5" y="861.5" as="targetPoint" />
          </mxGeometry>
        </mxCell>
        <mxCell id="TeYbG6EXB1Ewo-bh0uWP-138" value="" style="endArrow=none;html=1;rounded=0;exitX=0;exitY=0.75;exitDx=0;exitDy=0;entryX=1;entryY=0.75;entryDx=0;entryDy=0;" parent="1" source="TeYbG6EXB1Ewo-bh0uWP-136" target="TeYbG6EXB1Ewo-bh0uWP-136" edge="1">
          <mxGeometry width="50" height="50" relative="1" as="geometry">
            <mxPoint x="2081.5" y="701.5" as="sourcePoint" />
            <mxPoint x="2131.5" y="651.5" as="targetPoint" />
          </mxGeometry>
        </mxCell>
        <mxCell id="TeYbG6EXB1Ewo-bh0uWP-139" value="" style="endArrow=none;html=1;rounded=0;exitX=0.5;exitY=1;exitDx=0;exitDy=0;" parent="1" source="TeYbG6EXB1Ewo-bh0uWP-136" edge="1">
          <mxGeometry width="50" height="50" relative="1" as="geometry">
            <mxPoint x="2021.5" y="888.5" as="sourcePoint" />
            <mxPoint x="2021.5" y="868.5" as="targetPoint" />
          </mxGeometry>
        </mxCell>
        <mxCell id="TeYbG6EXB1Ewo-bh0uWP-140" value="A3.1.4" style="text;html=1;align=center;verticalAlign=middle;whiteSpace=wrap;rounded=0;" parent="1" vertex="1">
          <mxGeometry x="1955.5" y="866.5" width="60" height="30" as="geometry" />
        </mxCell>
        <mxCell id="TeYbG6EXB1Ewo-bh0uWP-141" value="" style="endArrow=classic;html=1;rounded=0;exitX=1;exitY=0.5;exitDx=0;exitDy=0;" parent="1" edge="1">
          <mxGeometry width="50" height="50" relative="1" as="geometry">
            <mxPoint x="2091.5" y="846.21" as="sourcePoint" />
            <mxPoint x="2208.5" y="846.5" as="targetPoint" />
          </mxGeometry>
        </mxCell>
        <mxCell id="TeYbG6EXB1Ewo-bh0uWP-142" value="Отправленное&lt;div&gt;сообщение&lt;/div&gt;" style="text;html=1;align=center;verticalAlign=middle;resizable=0;points=[];autosize=1;strokeColor=none;fillColor=none;" parent="1" vertex="1">
          <mxGeometry x="2102.5" y="804.5" width="99" height="41" as="geometry" />
        </mxCell>
        <mxCell id="TeYbG6EXB1Ewo-bh0uWP-143" value="Получение сообщения" style="rounded=0;whiteSpace=wrap;html=1;" parent="1" vertex="1">
          <mxGeometry x="1332" y="1325" width="140" height="90" as="geometry" />
        </mxCell>
        <mxCell id="TeYbG6EXB1Ewo-bh0uWP-144" value="" style="endArrow=none;html=1;rounded=0;exitX=0;exitY=0.25;exitDx=0;exitDy=0;entryX=0.159;entryY=0.009;entryDx=0;entryDy=0;entryPerimeter=0;" parent="1" source="TeYbG6EXB1Ewo-bh0uWP-143" target="TeYbG6EXB1Ewo-bh0uWP-143" edge="1">
          <mxGeometry width="50" height="50" relative="1" as="geometry">
            <mxPoint x="1258" y="1435" as="sourcePoint" />
            <mxPoint x="1308" y="1385" as="targetPoint" />
          </mxGeometry>
        </mxCell>
        <mxCell id="TeYbG6EXB1Ewo-bh0uWP-145" value="" style="endArrow=none;html=1;rounded=0;exitX=0;exitY=0.75;exitDx=0;exitDy=0;entryX=1;entryY=0.75;entryDx=0;entryDy=0;" parent="1" source="TeYbG6EXB1Ewo-bh0uWP-143" target="TeYbG6EXB1Ewo-bh0uWP-143" edge="1">
          <mxGeometry width="50" height="50" relative="1" as="geometry">
            <mxPoint x="1462" y="1225" as="sourcePoint" />
            <mxPoint x="1512" y="1175" as="targetPoint" />
          </mxGeometry>
        </mxCell>
        <mxCell id="TeYbG6EXB1Ewo-bh0uWP-146" value="" style="endArrow=none;html=1;rounded=0;exitX=0.5;exitY=1;exitDx=0;exitDy=0;" parent="1" source="TeYbG6EXB1Ewo-bh0uWP-143" edge="1">
          <mxGeometry width="50" height="50" relative="1" as="geometry">
            <mxPoint x="1402" y="1412" as="sourcePoint" />
            <mxPoint x="1402" y="1392" as="targetPoint" />
          </mxGeometry>
        </mxCell>
        <mxCell id="TeYbG6EXB1Ewo-bh0uWP-147" value="A4.1.1" style="text;html=1;align=center;verticalAlign=middle;whiteSpace=wrap;rounded=0;" parent="1" vertex="1">
          <mxGeometry x="1336" y="1390" width="60" height="30" as="geometry" />
        </mxCell>
        <mxCell id="TeYbG6EXB1Ewo-bh0uWP-148" value="Правила расшифрования сообщения" style="rounded=0;whiteSpace=wrap;html=1;" parent="1" vertex="1">
          <mxGeometry x="1522.5" y="1214" width="140" height="70" as="geometry" />
        </mxCell>
        <mxCell id="TeYbG6EXB1Ewo-bh0uWP-149" value="" style="endArrow=none;html=1;rounded=0;exitX=0;exitY=0.25;exitDx=0;exitDy=0;entryX=0.159;entryY=0.009;entryDx=0;entryDy=0;entryPerimeter=0;" parent="1" source="TeYbG6EXB1Ewo-bh0uWP-148" target="TeYbG6EXB1Ewo-bh0uWP-148" edge="1">
          <mxGeometry width="50" height="50" relative="1" as="geometry">
            <mxPoint x="1456" y="1324" as="sourcePoint" />
            <mxPoint x="1506" y="1274" as="targetPoint" />
          </mxGeometry>
        </mxCell>
        <mxCell id="TeYbG6EXB1Ewo-bh0uWP-150" value="" style="endArrow=none;dashed=1;html=1;rounded=0;exitX=0.5;exitY=1;exitDx=0;exitDy=0;entryX=0.5;entryY=0;entryDx=0;entryDy=0;" parent="1" source="TeYbG6EXB1Ewo-bh0uWP-148" target="0NskJPTef0U1A4S3Pu2u-90" edge="1">
          <mxGeometry width="50" height="50" relative="1" as="geometry">
            <mxPoint x="1482" y="1385" as="sourcePoint" />
            <mxPoint x="1532" y="1335" as="targetPoint" />
          </mxGeometry>
        </mxCell>
        <mxCell id="TeYbG6EXB1Ewo-bh0uWP-151" value="Пользователь" style="rounded=0;whiteSpace=wrap;html=1;" parent="1" vertex="1">
          <mxGeometry x="1332" y="1214" width="140" height="70" as="geometry" />
        </mxCell>
        <mxCell id="TeYbG6EXB1Ewo-bh0uWP-152" value="" style="endArrow=none;html=1;rounded=0;exitX=0;exitY=0.25;exitDx=0;exitDy=0;entryX=0.159;entryY=0.009;entryDx=0;entryDy=0;entryPerimeter=0;" parent="1" source="TeYbG6EXB1Ewo-bh0uWP-151" target="TeYbG6EXB1Ewo-bh0uWP-151" edge="1">
          <mxGeometry width="50" height="50" relative="1" as="geometry">
            <mxPoint x="1258" y="1315" as="sourcePoint" />
            <mxPoint x="1308" y="1265" as="targetPoint" />
          </mxGeometry>
        </mxCell>
        <mxCell id="TeYbG6EXB1Ewo-bh0uWP-153" value="" style="endArrow=none;dashed=1;html=1;rounded=0;exitX=0.5;exitY=0;exitDx=0;exitDy=0;entryX=0.5;entryY=1;entryDx=0;entryDy=0;" parent="1" edge="1">
          <mxGeometry width="50" height="50" relative="1" as="geometry">
            <mxPoint x="1401.8" y="1325" as="sourcePoint" />
            <mxPoint x="1401.8" y="1285" as="targetPoint" />
          </mxGeometry>
        </mxCell>
        <mxCell id="TeYbG6EXB1Ewo-bh0uWP-154" value="" style="endArrow=classic;html=1;rounded=0;exitX=1.012;exitY=0.556;exitDx=0;exitDy=0;exitPerimeter=0;entryX=0;entryY=0.5;entryDx=0;entryDy=0;" parent="1" source="TeYbG6EXB1Ewo-bh0uWP-143" edge="1">
          <mxGeometry width="50" height="50" relative="1" as="geometry">
            <mxPoint x="1662" y="1374" as="sourcePoint" />
            <mxPoint x="1522" y="1375" as="targetPoint" />
          </mxGeometry>
        </mxCell>
        <mxCell id="TeYbG6EXB1Ewo-bh0uWP-178" value="Отображения полученого результата" style="rounded=0;whiteSpace=wrap;html=1;" parent="1" vertex="1">
          <mxGeometry x="1743.5" y="1326.5" width="140" height="90" as="geometry" />
        </mxCell>
        <mxCell id="TeYbG6EXB1Ewo-bh0uWP-179" value="" style="endArrow=none;html=1;rounded=0;exitX=0;exitY=0.25;exitDx=0;exitDy=0;entryX=0.159;entryY=0.009;entryDx=0;entryDy=0;entryPerimeter=0;" parent="1" source="TeYbG6EXB1Ewo-bh0uWP-178" target="TeYbG6EXB1Ewo-bh0uWP-178" edge="1">
          <mxGeometry width="50" height="50" relative="1" as="geometry">
            <mxPoint x="1669.5" y="1436.5" as="sourcePoint" />
            <mxPoint x="1719.5" y="1386.5" as="targetPoint" />
          </mxGeometry>
        </mxCell>
        <mxCell id="TeYbG6EXB1Ewo-bh0uWP-180" value="" style="endArrow=none;html=1;rounded=0;exitX=0;exitY=0.75;exitDx=0;exitDy=0;entryX=1;entryY=0.75;entryDx=0;entryDy=0;" parent="1" source="TeYbG6EXB1Ewo-bh0uWP-178" target="TeYbG6EXB1Ewo-bh0uWP-178" edge="1">
          <mxGeometry width="50" height="50" relative="1" as="geometry">
            <mxPoint x="1873.5" y="1226.5" as="sourcePoint" />
            <mxPoint x="1923.5" y="1176.5" as="targetPoint" />
          </mxGeometry>
        </mxCell>
        <mxCell id="TeYbG6EXB1Ewo-bh0uWP-181" value="" style="endArrow=none;html=1;rounded=0;exitX=0.5;exitY=1;exitDx=0;exitDy=0;" parent="1" source="TeYbG6EXB1Ewo-bh0uWP-178" edge="1">
          <mxGeometry width="50" height="50" relative="1" as="geometry">
            <mxPoint x="1813.5" y="1413.5" as="sourcePoint" />
            <mxPoint x="1813.5" y="1393.5" as="targetPoint" />
          </mxGeometry>
        </mxCell>
        <mxCell id="TeYbG6EXB1Ewo-bh0uWP-182" value="A4.1.3" style="text;html=1;align=center;verticalAlign=middle;whiteSpace=wrap;rounded=0;" parent="1" vertex="1">
          <mxGeometry x="1747.5" y="1391.5" width="60" height="30" as="geometry" />
        </mxCell>
        <mxCell id="TeYbG6EXB1Ewo-bh0uWP-183" value="" style="endArrow=classic;html=1;rounded=0;exitX=1;exitY=0.5;exitDx=0;exitDy=0;" parent="1" edge="1">
          <mxGeometry width="50" height="50" relative="1" as="geometry">
            <mxPoint x="1883.5" y="1374.08" as="sourcePoint" />
            <mxPoint x="1964.5" y="1374" as="targetPoint" />
          </mxGeometry>
        </mxCell>
        <mxCell id="TeYbG6EXB1Ewo-bh0uWP-184" value="Полученный&lt;div&gt;ответ&lt;/div&gt;" style="text;html=1;align=center;verticalAlign=middle;resizable=0;points=[];autosize=1;strokeColor=none;fillColor=none;" parent="1" vertex="1">
          <mxGeometry x="1885" y="1336" width="88" height="41" as="geometry" />
        </mxCell>
        <mxCell id="0NskJPTef0U1A4S3Pu2u-1" value="Авторизация" style="rounded=0;whiteSpace=wrap;html=1;" parent="1" vertex="1">
          <mxGeometry x="1332" y="-165" width="140" height="90" as="geometry" />
        </mxCell>
        <mxCell id="0NskJPTef0U1A4S3Pu2u-2" value="" style="endArrow=none;html=1;rounded=0;exitX=0;exitY=0.25;exitDx=0;exitDy=0;entryX=0.159;entryY=0.009;entryDx=0;entryDy=0;entryPerimeter=0;" parent="1" source="0NskJPTef0U1A4S3Pu2u-1" target="0NskJPTef0U1A4S3Pu2u-1" edge="1">
          <mxGeometry width="50" height="50" relative="1" as="geometry">
            <mxPoint x="1258" y="-55" as="sourcePoint" />
            <mxPoint x="1308" y="-105" as="targetPoint" />
          </mxGeometry>
        </mxCell>
        <mxCell id="0NskJPTef0U1A4S3Pu2u-3" value="" style="endArrow=none;html=1;rounded=0;exitX=0;exitY=0.75;exitDx=0;exitDy=0;entryX=1;entryY=0.75;entryDx=0;entryDy=0;" parent="1" source="0NskJPTef0U1A4S3Pu2u-1" target="0NskJPTef0U1A4S3Pu2u-1" edge="1">
          <mxGeometry width="50" height="50" relative="1" as="geometry">
            <mxPoint x="1462" y="-265" as="sourcePoint" />
            <mxPoint x="1512" y="-315" as="targetPoint" />
          </mxGeometry>
        </mxCell>
        <mxCell id="0NskJPTef0U1A4S3Pu2u-4" value="" style="endArrow=none;html=1;rounded=0;exitX=0.5;exitY=1;exitDx=0;exitDy=0;" parent="1" source="0NskJPTef0U1A4S3Pu2u-1" edge="1">
          <mxGeometry width="50" height="50" relative="1" as="geometry">
            <mxPoint x="1402" y="-78" as="sourcePoint" />
            <mxPoint x="1402" y="-98" as="targetPoint" />
          </mxGeometry>
        </mxCell>
        <mxCell id="0NskJPTef0U1A4S3Pu2u-5" value="A1.1.1" style="text;html=1;align=center;verticalAlign=middle;whiteSpace=wrap;rounded=0;" parent="1" vertex="1">
          <mxGeometry x="1336" y="-100" width="60" height="30" as="geometry" />
        </mxCell>
        <mxCell id="0NskJPTef0U1A4S3Pu2u-6" value="Правила авторизации" style="rounded=0;whiteSpace=wrap;html=1;" parent="1" vertex="1">
          <mxGeometry x="1332" y="-35" width="140" height="70" as="geometry" />
        </mxCell>
        <mxCell id="0NskJPTef0U1A4S3Pu2u-7" value="" style="endArrow=none;html=1;rounded=0;exitX=0;exitY=0.25;exitDx=0;exitDy=0;entryX=0.159;entryY=0.009;entryDx=0;entryDy=0;entryPerimeter=0;" parent="1" source="0NskJPTef0U1A4S3Pu2u-6" target="0NskJPTef0U1A4S3Pu2u-6" edge="1">
          <mxGeometry width="50" height="50" relative="1" as="geometry">
            <mxPoint x="1258" y="75" as="sourcePoint" />
            <mxPoint x="1308" y="25" as="targetPoint" />
          </mxGeometry>
        </mxCell>
        <mxCell id="0NskJPTef0U1A4S3Pu2u-8" value="" style="endArrow=none;dashed=1;html=1;rounded=0;exitX=0.5;exitY=0;exitDx=0;exitDy=0;entryX=0.5;entryY=1;entryDx=0;entryDy=0;" parent="1" source="0NskJPTef0U1A4S3Pu2u-6" target="0NskJPTef0U1A4S3Pu2u-1" edge="1">
          <mxGeometry width="50" height="50" relative="1" as="geometry">
            <mxPoint x="1482" y="-105" as="sourcePoint" />
            <mxPoint x="1532" y="-155" as="targetPoint" />
          </mxGeometry>
        </mxCell>
        <mxCell id="0NskJPTef0U1A4S3Pu2u-9" value="Пользователь" style="rounded=0;whiteSpace=wrap;html=1;" parent="1" vertex="1">
          <mxGeometry x="1332" y="-276" width="140" height="70" as="geometry" />
        </mxCell>
        <mxCell id="0NskJPTef0U1A4S3Pu2u-10" value="" style="endArrow=none;html=1;rounded=0;exitX=0;exitY=0.25;exitDx=0;exitDy=0;entryX=0.159;entryY=0.009;entryDx=0;entryDy=0;entryPerimeter=0;" parent="1" source="0NskJPTef0U1A4S3Pu2u-9" target="0NskJPTef0U1A4S3Pu2u-9" edge="1">
          <mxGeometry width="50" height="50" relative="1" as="geometry">
            <mxPoint x="1258" y="-175" as="sourcePoint" />
            <mxPoint x="1308" y="-225" as="targetPoint" />
          </mxGeometry>
        </mxCell>
        <mxCell id="0NskJPTef0U1A4S3Pu2u-11" value="" style="endArrow=none;dashed=1;html=1;rounded=0;exitX=0.5;exitY=0;exitDx=0;exitDy=0;entryX=0.5;entryY=1;entryDx=0;entryDy=0;" parent="1" edge="1">
          <mxGeometry width="50" height="50" relative="1" as="geometry">
            <mxPoint x="1401.8" y="-165" as="sourcePoint" />
            <mxPoint x="1401.8" y="-205" as="targetPoint" />
          </mxGeometry>
        </mxCell>
        <mxCell id="0NskJPTef0U1A4S3Pu2u-12" value="" style="rounded=0;whiteSpace=wrap;html=1;" parent="1" vertex="1">
          <mxGeometry x="1530" y="-140" width="40" height="40" as="geometry" />
        </mxCell>
        <mxCell id="0NskJPTef0U1A4S3Pu2u-13" value="" style="endArrow=none;html=1;rounded=0;exitX=0.25;exitY=1;exitDx=0;exitDy=0;entryX=0.25;entryY=0;entryDx=0;entryDy=0;" parent="1" source="0NskJPTef0U1A4S3Pu2u-12" target="0NskJPTef0U1A4S3Pu2u-12" edge="1">
          <mxGeometry width="50" height="50" relative="1" as="geometry">
            <mxPoint x="1590" y="-125" as="sourcePoint" />
            <mxPoint x="1640" y="-175" as="targetPoint" />
          </mxGeometry>
        </mxCell>
        <mxCell id="0NskJPTef0U1A4S3Pu2u-14" value="&lt;font face=&quot;Times New Roman&quot;&gt;&lt;span style=&quot;font-size: 15px;&quot;&gt;&lt;b&gt;&amp;amp;&lt;/b&gt;&lt;/span&gt;&lt;/font&gt;" style="text;html=1;align=center;verticalAlign=middle;whiteSpace=wrap;rounded=0;" parent="1" vertex="1">
          <mxGeometry x="1544" y="-135" width="20" height="30" as="geometry" />
        </mxCell>
        <mxCell id="0NskJPTef0U1A4S3Pu2u-15" value="" style="endArrow=classic;html=1;rounded=0;exitX=1;exitY=0.5;exitDx=0;exitDy=0;entryX=0;entryY=0.5;entryDx=0;entryDy=0;" parent="1" source="0NskJPTef0U1A4S3Pu2u-1" target="0NskJPTef0U1A4S3Pu2u-12" edge="1">
          <mxGeometry width="50" height="50" relative="1" as="geometry">
            <mxPoint x="1662" y="-125" as="sourcePoint" />
            <mxPoint x="1712" y="-175" as="targetPoint" />
            <Array as="points">
              <mxPoint x="1502" y="-120" />
            </Array>
          </mxGeometry>
        </mxCell>
        <mxCell id="0NskJPTef0U1A4S3Pu2u-16" value="Ввод email" style="rounded=0;whiteSpace=wrap;html=1;" parent="1" vertex="1">
          <mxGeometry x="1612" y="-276" width="140" height="90" as="geometry" />
        </mxCell>
        <mxCell id="0NskJPTef0U1A4S3Pu2u-17" value="" style="endArrow=none;html=1;rounded=0;exitX=0;exitY=0.25;exitDx=0;exitDy=0;entryX=0.159;entryY=0.009;entryDx=0;entryDy=0;entryPerimeter=0;" parent="1" source="0NskJPTef0U1A4S3Pu2u-16" target="0NskJPTef0U1A4S3Pu2u-16" edge="1">
          <mxGeometry width="50" height="50" relative="1" as="geometry">
            <mxPoint x="1538" y="-166" as="sourcePoint" />
            <mxPoint x="1588" y="-216" as="targetPoint" />
          </mxGeometry>
        </mxCell>
        <mxCell id="0NskJPTef0U1A4S3Pu2u-18" value="" style="endArrow=none;html=1;rounded=0;exitX=0;exitY=0.75;exitDx=0;exitDy=0;entryX=1;entryY=0.75;entryDx=0;entryDy=0;" parent="1" source="0NskJPTef0U1A4S3Pu2u-16" target="0NskJPTef0U1A4S3Pu2u-16" edge="1">
          <mxGeometry width="50" height="50" relative="1" as="geometry">
            <mxPoint x="1742" y="-376" as="sourcePoint" />
            <mxPoint x="1792" y="-426" as="targetPoint" />
          </mxGeometry>
        </mxCell>
        <mxCell id="0NskJPTef0U1A4S3Pu2u-19" value="" style="endArrow=none;html=1;rounded=0;exitX=0.5;exitY=1;exitDx=0;exitDy=0;" parent="1" source="0NskJPTef0U1A4S3Pu2u-16" edge="1">
          <mxGeometry width="50" height="50" relative="1" as="geometry">
            <mxPoint x="1682" y="-189" as="sourcePoint" />
            <mxPoint x="1682" y="-209" as="targetPoint" />
          </mxGeometry>
        </mxCell>
        <mxCell id="0NskJPTef0U1A4S3Pu2u-20" value="A1.1.2" style="text;html=1;align=center;verticalAlign=middle;whiteSpace=wrap;rounded=0;" parent="1" vertex="1">
          <mxGeometry x="1616" y="-211" width="60" height="30" as="geometry" />
        </mxCell>
        <mxCell id="0NskJPTef0U1A4S3Pu2u-21" value="Ввод пароля" style="rounded=0;whiteSpace=wrap;html=1;" parent="1" vertex="1">
          <mxGeometry x="1612" y="-60" width="140" height="90" as="geometry" />
        </mxCell>
        <mxCell id="0NskJPTef0U1A4S3Pu2u-22" value="" style="endArrow=none;html=1;rounded=0;exitX=0;exitY=0.25;exitDx=0;exitDy=0;entryX=0.159;entryY=0.009;entryDx=0;entryDy=0;entryPerimeter=0;" parent="1" source="0NskJPTef0U1A4S3Pu2u-21" target="0NskJPTef0U1A4S3Pu2u-21" edge="1">
          <mxGeometry width="50" height="50" relative="1" as="geometry">
            <mxPoint x="1538" y="50" as="sourcePoint" />
            <mxPoint x="1588" as="targetPoint" />
          </mxGeometry>
        </mxCell>
        <mxCell id="0NskJPTef0U1A4S3Pu2u-23" value="" style="endArrow=none;html=1;rounded=0;exitX=0;exitY=0.75;exitDx=0;exitDy=0;entryX=1;entryY=0.75;entryDx=0;entryDy=0;" parent="1" source="0NskJPTef0U1A4S3Pu2u-21" target="0NskJPTef0U1A4S3Pu2u-21" edge="1">
          <mxGeometry width="50" height="50" relative="1" as="geometry">
            <mxPoint x="1742" y="-160" as="sourcePoint" />
            <mxPoint x="1792" y="-210" as="targetPoint" />
          </mxGeometry>
        </mxCell>
        <mxCell id="0NskJPTef0U1A4S3Pu2u-24" value="" style="endArrow=none;html=1;rounded=0;exitX=0.5;exitY=1;exitDx=0;exitDy=0;" parent="1" source="0NskJPTef0U1A4S3Pu2u-21" edge="1">
          <mxGeometry width="50" height="50" relative="1" as="geometry">
            <mxPoint x="1682" y="27" as="sourcePoint" />
            <mxPoint x="1682" y="7" as="targetPoint" />
          </mxGeometry>
        </mxCell>
        <mxCell id="0NskJPTef0U1A4S3Pu2u-26" value="" style="endArrow=classic;html=1;rounded=0;entryX=0;entryY=0.5;entryDx=0;entryDy=0;exitX=1;exitY=0.25;exitDx=0;exitDy=0;" parent="1" source="0NskJPTef0U1A4S3Pu2u-12" target="0NskJPTef0U1A4S3Pu2u-16" edge="1">
          <mxGeometry width="50" height="50" relative="1" as="geometry">
            <mxPoint x="1576" y="-138" as="sourcePoint" />
            <mxPoint x="1712" y="-175" as="targetPoint" />
            <Array as="points">
              <mxPoint x="1586" y="-130" />
              <mxPoint x="1585" y="-231" />
            </Array>
          </mxGeometry>
        </mxCell>
        <mxCell id="0NskJPTef0U1A4S3Pu2u-27" value="" style="endArrow=classic;html=1;rounded=0;entryX=0;entryY=0.5;entryDx=0;entryDy=0;exitX=1;exitY=0.75;exitDx=0;exitDy=0;" parent="1" source="0NskJPTef0U1A4S3Pu2u-12" edge="1">
          <mxGeometry width="50" height="50" relative="1" as="geometry">
            <mxPoint x="1569" y="-108" as="sourcePoint" />
            <mxPoint x="1612" y="-9" as="targetPoint" />
            <Array as="points">
              <mxPoint x="1585" y="-110" />
              <mxPoint x="1585" y="-9" />
            </Array>
          </mxGeometry>
        </mxCell>
        <mxCell id="0NskJPTef0U1A4S3Pu2u-28" value="Авторизировать пользователя" style="rounded=0;whiteSpace=wrap;html=1;" parent="1" vertex="1">
          <mxGeometry x="2279" y="-167.5" width="140" height="90" as="geometry" />
        </mxCell>
        <mxCell id="0NskJPTef0U1A4S3Pu2u-29" value="" style="endArrow=none;html=1;rounded=0;exitX=0;exitY=0.25;exitDx=0;exitDy=0;entryX=0.159;entryY=0.009;entryDx=0;entryDy=0;entryPerimeter=0;" parent="1" source="0NskJPTef0U1A4S3Pu2u-28" target="0NskJPTef0U1A4S3Pu2u-28" edge="1">
          <mxGeometry width="50" height="50" relative="1" as="geometry">
            <mxPoint x="2205" y="-57.5" as="sourcePoint" />
            <mxPoint x="2255" y="-107.5" as="targetPoint" />
          </mxGeometry>
        </mxCell>
        <mxCell id="0NskJPTef0U1A4S3Pu2u-30" value="" style="endArrow=none;html=1;rounded=0;exitX=0;exitY=0.75;exitDx=0;exitDy=0;entryX=1;entryY=0.75;entryDx=0;entryDy=0;" parent="1" source="0NskJPTef0U1A4S3Pu2u-28" target="0NskJPTef0U1A4S3Pu2u-28" edge="1">
          <mxGeometry width="50" height="50" relative="1" as="geometry">
            <mxPoint x="2409" y="-267.5" as="sourcePoint" />
            <mxPoint x="2459" y="-317.5" as="targetPoint" />
          </mxGeometry>
        </mxCell>
        <mxCell id="0NskJPTef0U1A4S3Pu2u-31" value="" style="endArrow=none;html=1;rounded=0;exitX=0.5;exitY=1;exitDx=0;exitDy=0;" parent="1" source="0NskJPTef0U1A4S3Pu2u-28" edge="1">
          <mxGeometry width="50" height="50" relative="1" as="geometry">
            <mxPoint x="2349" y="-80.5" as="sourcePoint" />
            <mxPoint x="2349" y="-100.5" as="targetPoint" />
          </mxGeometry>
        </mxCell>
        <mxCell id="0NskJPTef0U1A4S3Pu2u-32" value="A1.1.6" style="text;html=1;align=center;verticalAlign=middle;whiteSpace=wrap;rounded=0;" parent="1" vertex="1">
          <mxGeometry x="2283" y="-102.5" width="60" height="30" as="geometry" />
        </mxCell>
        <mxCell id="0NskJPTef0U1A4S3Pu2u-33" value="" style="rounded=0;whiteSpace=wrap;html=1;" parent="1" vertex="1">
          <mxGeometry x="1831" y="-140" width="40" height="40" as="geometry" />
        </mxCell>
        <mxCell id="0NskJPTef0U1A4S3Pu2u-34" value="" style="endArrow=none;html=1;rounded=0;exitX=0.25;exitY=1;exitDx=0;exitDy=0;entryX=0.25;entryY=0;entryDx=0;entryDy=0;" parent="1" source="0NskJPTef0U1A4S3Pu2u-33" target="0NskJPTef0U1A4S3Pu2u-33" edge="1">
          <mxGeometry width="50" height="50" relative="1" as="geometry">
            <mxPoint x="1891" y="-125" as="sourcePoint" />
            <mxPoint x="1941" y="-175" as="targetPoint" />
          </mxGeometry>
        </mxCell>
        <mxCell id="4M2B03OyiYjb9Eklj8VH-100" style="edgeStyle=orthogonalEdgeStyle;rounded=0;orthogonalLoop=1;jettySize=auto;html=1;entryX=0.002;entryY=0.529;entryDx=0;entryDy=0;entryPerimeter=0;" parent="1" source="0NskJPTef0U1A4S3Pu2u-35" target="4M2B03OyiYjb9Eklj8VH-88" edge="1">
          <mxGeometry relative="1" as="geometry">
            <Array as="points" />
          </mxGeometry>
        </mxCell>
        <mxCell id="0NskJPTef0U1A4S3Pu2u-35" value="&lt;font face=&quot;Times New Roman&quot;&gt;&lt;span style=&quot;font-size: 15px;&quot;&gt;&lt;b&gt;&amp;amp;&lt;/b&gt;&lt;/span&gt;&lt;/font&gt;" style="text;html=1;align=center;verticalAlign=middle;whiteSpace=wrap;rounded=0;" parent="1" vertex="1">
          <mxGeometry x="1845" y="-135" width="20" height="30" as="geometry" />
        </mxCell>
        <mxCell id="0NskJPTef0U1A4S3Pu2u-36" value="" style="endArrow=classic;html=1;rounded=0;exitX=1;exitY=0.5;exitDx=0;exitDy=0;entryX=0.5;entryY=0;entryDx=0;entryDy=0;" parent="1" source="0NskJPTef0U1A4S3Pu2u-16" target="0NskJPTef0U1A4S3Pu2u-33" edge="1">
          <mxGeometry width="50" height="50" relative="1" as="geometry">
            <mxPoint x="1823" y="-241.5" as="sourcePoint" />
            <mxPoint x="1771" y="-150.5" as="targetPoint" />
            <Array as="points">
              <mxPoint x="1852" y="-231" />
            </Array>
          </mxGeometry>
        </mxCell>
        <mxCell id="0NskJPTef0U1A4S3Pu2u-38" value="" style="endArrow=classic;html=1;rounded=0;exitX=1;exitY=0.5;exitDx=0;exitDy=0;entryX=0.5;entryY=0;entryDx=0;entryDy=0;" parent="1" edge="1">
          <mxGeometry width="50" height="50" relative="1" as="geometry">
            <mxPoint x="1753" y="-9" as="sourcePoint" />
            <mxPoint x="1852" y="-100" as="targetPoint" />
            <Array as="points">
              <mxPoint x="1853" y="-9" />
            </Array>
          </mxGeometry>
        </mxCell>
        <mxCell id="0NskJPTef0U1A4S3Pu2u-39" value="&lt;font face=&quot;Times New Roman&quot;&gt;&lt;span style=&quot;font-size: 15px;&quot;&gt;&lt;b&gt;J1&lt;/b&gt;&lt;/span&gt;&lt;/font&gt;" style="text;html=1;align=center;verticalAlign=middle;whiteSpace=wrap;rounded=0;" parent="1" vertex="1">
          <mxGeometry x="1563" y="-100" width="20" height="30" as="geometry" />
        </mxCell>
        <mxCell id="0NskJPTef0U1A4S3Pu2u-40" value="&lt;font face=&quot;Times New Roman&quot;&gt;&lt;span style=&quot;font-size: 15px;&quot;&gt;&lt;b&gt;J2&lt;/b&gt;&lt;/span&gt;&lt;/font&gt;" style="text;html=1;align=center;verticalAlign=middle;whiteSpace=wrap;rounded=0;" parent="1" vertex="1">
          <mxGeometry x="1873" y="-110" width="20" height="30" as="geometry" />
        </mxCell>
        <mxCell id="0NskJPTef0U1A4S3Pu2u-42" value="" style="endArrow=classic;html=1;rounded=0;exitX=1;exitY=0.5;exitDx=0;exitDy=0;entryX=0;entryY=0.5;entryDx=0;entryDy=0;" parent="1" edge="1">
          <mxGeometry width="50" height="50" relative="1" as="geometry">
            <mxPoint x="2419" y="-122.79999999999997" as="sourcePoint" />
            <mxPoint x="2500" y="-122.79999999999997" as="targetPoint" />
          </mxGeometry>
        </mxCell>
        <mxCell id="0NskJPTef0U1A4S3Pu2u-45" value="Выбор чата" style="rounded=0;whiteSpace=wrap;html=1;" parent="1" vertex="1">
          <mxGeometry x="1327" y="242" width="140" height="90" as="geometry" />
        </mxCell>
        <mxCell id="0NskJPTef0U1A4S3Pu2u-46" value="" style="endArrow=none;html=1;rounded=0;exitX=0;exitY=0.25;exitDx=0;exitDy=0;entryX=0.159;entryY=0.009;entryDx=0;entryDy=0;entryPerimeter=0;" parent="1" source="0NskJPTef0U1A4S3Pu2u-45" target="0NskJPTef0U1A4S3Pu2u-45" edge="1">
          <mxGeometry width="50" height="50" relative="1" as="geometry">
            <mxPoint x="1253" y="352" as="sourcePoint" />
            <mxPoint x="1303" y="302" as="targetPoint" />
          </mxGeometry>
        </mxCell>
        <mxCell id="0NskJPTef0U1A4S3Pu2u-47" value="" style="endArrow=none;html=1;rounded=0;exitX=0;exitY=0.75;exitDx=0;exitDy=0;entryX=1;entryY=0.75;entryDx=0;entryDy=0;" parent="1" source="0NskJPTef0U1A4S3Pu2u-45" target="0NskJPTef0U1A4S3Pu2u-45" edge="1">
          <mxGeometry width="50" height="50" relative="1" as="geometry">
            <mxPoint x="1457" y="142" as="sourcePoint" />
            <mxPoint x="1507" y="92" as="targetPoint" />
          </mxGeometry>
        </mxCell>
        <mxCell id="0NskJPTef0U1A4S3Pu2u-48" value="" style="endArrow=none;html=1;rounded=0;exitX=0.5;exitY=1;exitDx=0;exitDy=0;" parent="1" source="0NskJPTef0U1A4S3Pu2u-45" edge="1">
          <mxGeometry width="50" height="50" relative="1" as="geometry">
            <mxPoint x="1397" y="329" as="sourcePoint" />
            <mxPoint x="1397" y="309" as="targetPoint" />
          </mxGeometry>
        </mxCell>
        <mxCell id="0NskJPTef0U1A4S3Pu2u-49" value="A2.1.1" style="text;html=1;align=center;verticalAlign=middle;whiteSpace=wrap;rounded=0;" parent="1" vertex="1">
          <mxGeometry x="1331" y="307" width="60" height="30" as="geometry" />
        </mxCell>
        <mxCell id="0NskJPTef0U1A4S3Pu2u-50" value="Список чатов" style="rounded=0;whiteSpace=wrap;html=1;" parent="1" vertex="1">
          <mxGeometry x="1327" y="372" width="140" height="70" as="geometry" />
        </mxCell>
        <mxCell id="0NskJPTef0U1A4S3Pu2u-51" value="" style="endArrow=none;html=1;rounded=0;exitX=0;exitY=0.25;exitDx=0;exitDy=0;entryX=0.159;entryY=0.009;entryDx=0;entryDy=0;entryPerimeter=0;" parent="1" source="0NskJPTef0U1A4S3Pu2u-50" target="0NskJPTef0U1A4S3Pu2u-50" edge="1">
          <mxGeometry width="50" height="50" relative="1" as="geometry">
            <mxPoint x="1253" y="482" as="sourcePoint" />
            <mxPoint x="1303" y="432" as="targetPoint" />
          </mxGeometry>
        </mxCell>
        <mxCell id="0NskJPTef0U1A4S3Pu2u-52" value="" style="endArrow=none;dashed=1;html=1;rounded=0;exitX=0.5;exitY=0;exitDx=0;exitDy=0;entryX=0.5;entryY=1;entryDx=0;entryDy=0;" parent="1" source="0NskJPTef0U1A4S3Pu2u-50" target="0NskJPTef0U1A4S3Pu2u-45" edge="1">
          <mxGeometry width="50" height="50" relative="1" as="geometry">
            <mxPoint x="1477" y="302" as="sourcePoint" />
            <mxPoint x="1527" y="252" as="targetPoint" />
          </mxGeometry>
        </mxCell>
        <mxCell id="0NskJPTef0U1A4S3Pu2u-53" value="Пользователь" style="rounded=0;whiteSpace=wrap;html=1;" parent="1" vertex="1">
          <mxGeometry x="1327" y="131" width="140" height="70" as="geometry" />
        </mxCell>
        <mxCell id="0NskJPTef0U1A4S3Pu2u-54" value="" style="endArrow=none;html=1;rounded=0;exitX=0;exitY=0.25;exitDx=0;exitDy=0;entryX=0.159;entryY=0.009;entryDx=0;entryDy=0;entryPerimeter=0;" parent="1" source="0NskJPTef0U1A4S3Pu2u-53" target="0NskJPTef0U1A4S3Pu2u-53" edge="1">
          <mxGeometry width="50" height="50" relative="1" as="geometry">
            <mxPoint x="1253" y="232" as="sourcePoint" />
            <mxPoint x="1303" y="182" as="targetPoint" />
          </mxGeometry>
        </mxCell>
        <mxCell id="0NskJPTef0U1A4S3Pu2u-55" value="" style="endArrow=none;dashed=1;html=1;rounded=0;exitX=0.5;exitY=0;exitDx=0;exitDy=0;entryX=0.5;entryY=1;entryDx=0;entryDy=0;" parent="1" edge="1">
          <mxGeometry width="50" height="50" relative="1" as="geometry">
            <mxPoint x="1396.8" y="242" as="sourcePoint" />
            <mxPoint x="1396.8" y="202" as="targetPoint" />
          </mxGeometry>
        </mxCell>
        <mxCell id="0NskJPTef0U1A4S3Pu2u-56" value="" style="rounded=0;whiteSpace=wrap;html=1;" parent="1" vertex="1">
          <mxGeometry x="1525" y="267" width="40" height="40" as="geometry" />
        </mxCell>
        <mxCell id="0NskJPTef0U1A4S3Pu2u-57" value="" style="endArrow=none;html=1;rounded=0;exitX=0.25;exitY=1;exitDx=0;exitDy=0;entryX=0.25;entryY=0;entryDx=0;entryDy=0;" parent="1" source="0NskJPTef0U1A4S3Pu2u-56" target="0NskJPTef0U1A4S3Pu2u-56" edge="1">
          <mxGeometry width="50" height="50" relative="1" as="geometry">
            <mxPoint x="1585" y="282" as="sourcePoint" />
            <mxPoint x="1635" y="232" as="targetPoint" />
          </mxGeometry>
        </mxCell>
        <mxCell id="0NskJPTef0U1A4S3Pu2u-58" value="&lt;font face=&quot;Times New Roman&quot;&gt;&lt;span style=&quot;font-size: 15px;&quot;&gt;&lt;b&gt;X&lt;/b&gt;&lt;/span&gt;&lt;/font&gt;" style="text;html=1;align=center;verticalAlign=middle;whiteSpace=wrap;rounded=0;" parent="1" vertex="1">
          <mxGeometry x="1539" y="272" width="20" height="30" as="geometry" />
        </mxCell>
        <mxCell id="0NskJPTef0U1A4S3Pu2u-59" value="" style="endArrow=classic;html=1;rounded=0;exitX=1;exitY=0.5;exitDx=0;exitDy=0;entryX=0;entryY=0.5;entryDx=0;entryDy=0;" parent="1" source="0NskJPTef0U1A4S3Pu2u-45" target="0NskJPTef0U1A4S3Pu2u-56" edge="1">
          <mxGeometry width="50" height="50" relative="1" as="geometry">
            <mxPoint x="1657" y="282" as="sourcePoint" />
            <mxPoint x="1707" y="232" as="targetPoint" />
            <Array as="points">
              <mxPoint x="1497" y="287" />
            </Array>
          </mxGeometry>
        </mxCell>
        <mxCell id="4M2B03OyiYjb9Eklj8VH-82" style="edgeStyle=orthogonalEdgeStyle;rounded=0;orthogonalLoop=1;jettySize=auto;html=1;exitX=1;exitY=0.5;exitDx=0;exitDy=0;entryX=0;entryY=0.5;entryDx=0;entryDy=0;" parent="1" source="0NskJPTef0U1A4S3Pu2u-60" target="4M2B03OyiYjb9Eklj8VH-77" edge="1">
          <mxGeometry relative="1" as="geometry" />
        </mxCell>
        <mxCell id="0NskJPTef0U1A4S3Pu2u-60" value="Выбор недоступного чата" style="rounded=0;whiteSpace=wrap;html=1;" parent="1" vertex="1">
          <mxGeometry x="1607.5" y="131" width="140" height="90" as="geometry" />
        </mxCell>
        <mxCell id="0NskJPTef0U1A4S3Pu2u-61" value="" style="endArrow=none;html=1;rounded=0;exitX=0;exitY=0.25;exitDx=0;exitDy=0;entryX=0.159;entryY=0.009;entryDx=0;entryDy=0;entryPerimeter=0;" parent="1" source="0NskJPTef0U1A4S3Pu2u-60" target="0NskJPTef0U1A4S3Pu2u-60" edge="1">
          <mxGeometry width="50" height="50" relative="1" as="geometry">
            <mxPoint x="1533" y="241" as="sourcePoint" />
            <mxPoint x="1583" y="191" as="targetPoint" />
          </mxGeometry>
        </mxCell>
        <mxCell id="0NskJPTef0U1A4S3Pu2u-62" value="" style="endArrow=none;html=1;rounded=0;exitX=0;exitY=0.75;exitDx=0;exitDy=0;entryX=1;entryY=0.75;entryDx=0;entryDy=0;" parent="1" source="0NskJPTef0U1A4S3Pu2u-60" target="0NskJPTef0U1A4S3Pu2u-60" edge="1">
          <mxGeometry width="50" height="50" relative="1" as="geometry">
            <mxPoint x="1737" y="31" as="sourcePoint" />
            <mxPoint x="1787" y="-19" as="targetPoint" />
          </mxGeometry>
        </mxCell>
        <mxCell id="0NskJPTef0U1A4S3Pu2u-63" value="" style="endArrow=none;html=1;rounded=0;exitX=0.5;exitY=1;exitDx=0;exitDy=0;" parent="1" source="0NskJPTef0U1A4S3Pu2u-60" edge="1">
          <mxGeometry width="50" height="50" relative="1" as="geometry">
            <mxPoint x="1677" y="218" as="sourcePoint" />
            <mxPoint x="1677" y="198" as="targetPoint" />
          </mxGeometry>
        </mxCell>
        <mxCell id="0NskJPTef0U1A4S3Pu2u-64" value="A2.1.2" style="text;html=1;align=center;verticalAlign=middle;whiteSpace=wrap;rounded=0;" parent="1" vertex="1">
          <mxGeometry x="1611" y="196" width="60" height="30" as="geometry" />
        </mxCell>
        <mxCell id="0NskJPTef0U1A4S3Pu2u-65" value="Выбор доступного чата" style="rounded=0;whiteSpace=wrap;html=1;" parent="1" vertex="1">
          <mxGeometry x="1607" y="347" width="140" height="90" as="geometry" />
        </mxCell>
        <mxCell id="0NskJPTef0U1A4S3Pu2u-66" value="" style="endArrow=none;html=1;rounded=0;exitX=0;exitY=0.25;exitDx=0;exitDy=0;entryX=0.159;entryY=0.009;entryDx=0;entryDy=0;entryPerimeter=0;" parent="1" source="0NskJPTef0U1A4S3Pu2u-65" target="0NskJPTef0U1A4S3Pu2u-65" edge="1">
          <mxGeometry width="50" height="50" relative="1" as="geometry">
            <mxPoint x="1533" y="457" as="sourcePoint" />
            <mxPoint x="1583" y="407" as="targetPoint" />
          </mxGeometry>
        </mxCell>
        <mxCell id="0NskJPTef0U1A4S3Pu2u-67" value="" style="endArrow=none;html=1;rounded=0;exitX=0;exitY=0.75;exitDx=0;exitDy=0;entryX=1;entryY=0.75;entryDx=0;entryDy=0;" parent="1" source="0NskJPTef0U1A4S3Pu2u-65" target="0NskJPTef0U1A4S3Pu2u-65" edge="1">
          <mxGeometry width="50" height="50" relative="1" as="geometry">
            <mxPoint x="1737" y="247" as="sourcePoint" />
            <mxPoint x="1787" y="197" as="targetPoint" />
          </mxGeometry>
        </mxCell>
        <mxCell id="0NskJPTef0U1A4S3Pu2u-68" value="" style="endArrow=none;html=1;rounded=0;exitX=0.5;exitY=1;exitDx=0;exitDy=0;" parent="1" source="0NskJPTef0U1A4S3Pu2u-65" edge="1">
          <mxGeometry width="50" height="50" relative="1" as="geometry">
            <mxPoint x="1677" y="434" as="sourcePoint" />
            <mxPoint x="1677" y="414" as="targetPoint" />
          </mxGeometry>
        </mxCell>
        <mxCell id="0NskJPTef0U1A4S3Pu2u-69" value="" style="endArrow=classic;html=1;rounded=0;exitX=0.75;exitY=0;exitDx=0;exitDy=0;entryX=0;entryY=0.5;entryDx=0;entryDy=0;" parent="1" source="0NskJPTef0U1A4S3Pu2u-56" target="0NskJPTef0U1A4S3Pu2u-60" edge="1">
          <mxGeometry width="50" height="50" relative="1" as="geometry">
            <mxPoint x="1657" y="282" as="sourcePoint" />
            <mxPoint x="1707" y="232" as="targetPoint" />
            <Array as="points">
              <mxPoint x="1555" y="176" />
            </Array>
          </mxGeometry>
        </mxCell>
        <mxCell id="0NskJPTef0U1A4S3Pu2u-70" value="" style="endArrow=classic;html=1;rounded=0;exitX=0.75;exitY=0;exitDx=0;exitDy=0;entryX=0;entryY=0.5;entryDx=0;entryDy=0;" parent="1" edge="1">
          <mxGeometry width="50" height="50" relative="1" as="geometry">
            <mxPoint x="1555" y="307" as="sourcePoint" />
            <mxPoint x="1607" y="398" as="targetPoint" />
            <Array as="points">
              <mxPoint x="1555" y="398" />
            </Array>
          </mxGeometry>
        </mxCell>
        <mxCell id="0NskJPTef0U1A4S3Pu2u-76" value="" style="rounded=0;whiteSpace=wrap;html=1;" parent="1" vertex="1">
          <mxGeometry x="1952" y="265" width="40" height="40" as="geometry" />
        </mxCell>
        <mxCell id="0NskJPTef0U1A4S3Pu2u-77" value="" style="endArrow=none;html=1;rounded=0;exitX=0.25;exitY=1;exitDx=0;exitDy=0;entryX=0.25;entryY=0;entryDx=0;entryDy=0;" parent="1" source="0NskJPTef0U1A4S3Pu2u-76" target="0NskJPTef0U1A4S3Pu2u-76" edge="1">
          <mxGeometry width="50" height="50" relative="1" as="geometry">
            <mxPoint x="2012" y="280" as="sourcePoint" />
            <mxPoint x="2062" y="230" as="targetPoint" />
          </mxGeometry>
        </mxCell>
        <mxCell id="0NskJPTef0U1A4S3Pu2u-78" value="&lt;font face=&quot;Times New Roman&quot;&gt;&lt;span style=&quot;font-size: 15px;&quot;&gt;&lt;b&gt;X&lt;/b&gt;&lt;/span&gt;&lt;/font&gt;" style="text;html=1;align=center;verticalAlign=middle;whiteSpace=wrap;rounded=0;" parent="1" vertex="1">
          <mxGeometry x="1966" y="270" width="20" height="30" as="geometry" />
        </mxCell>
        <mxCell id="0NskJPTef0U1A4S3Pu2u-81" value="" style="endArrow=classic;html=1;rounded=0;exitX=1.002;exitY=0.562;exitDx=0;exitDy=0;entryX=0.5;entryY=1;entryDx=0;entryDy=0;exitPerimeter=0;" parent="1" source="0NskJPTef0U1A4S3Pu2u-65" target="0NskJPTef0U1A4S3Pu2u-76" edge="1">
          <mxGeometry width="50" height="50" relative="1" as="geometry">
            <mxPoint x="1932" y="398" as="sourcePoint" />
            <mxPoint x="2031" y="307" as="targetPoint" />
            <Array as="points">
              <mxPoint x="1972" y="398" />
            </Array>
          </mxGeometry>
        </mxCell>
        <mxCell id="0NskJPTef0U1A4S3Pu2u-82" value="&lt;font face=&quot;Times New Roman&quot;&gt;&lt;span style=&quot;font-size: 15px;&quot;&gt;&lt;b&gt;J3&lt;/b&gt;&lt;/span&gt;&lt;/font&gt;" style="text;html=1;align=center;verticalAlign=middle;whiteSpace=wrap;rounded=0;" parent="1" vertex="1">
          <mxGeometry x="1568" y="297" width="20" height="30" as="geometry" />
        </mxCell>
        <mxCell id="0NskJPTef0U1A4S3Pu2u-83" value="&lt;font face=&quot;Times New Roman&quot;&gt;&lt;span style=&quot;font-size: 15px;&quot;&gt;&lt;b&gt;J4&lt;/b&gt;&lt;/span&gt;&lt;/font&gt;" style="text;html=1;align=center;verticalAlign=middle;whiteSpace=wrap;rounded=0;" parent="1" vertex="1">
          <mxGeometry x="1994" y="295" width="20" height="30" as="geometry" />
        </mxCell>
        <mxCell id="0NskJPTef0U1A4S3Pu2u-84" value="" style="endArrow=classic;html=1;rounded=0;exitX=1;exitY=0.5;exitDx=0;exitDy=0;entryX=0;entryY=0.5;entryDx=0;entryDy=0;" parent="1" source="0NskJPTef0U1A4S3Pu2u-76" edge="1">
          <mxGeometry width="50" height="50" relative="1" as="geometry">
            <mxPoint x="1783" y="280" as="sourcePoint" />
            <mxPoint x="2073" y="285" as="targetPoint" />
          </mxGeometry>
        </mxCell>
        <mxCell id="0NskJPTef0U1A4S3Pu2u-86" value="Выбранный чат" style="edgeLabel;resizable=0;html=1;;align=center;verticalAlign=middle;" parent="1" connectable="0" vertex="1">
          <mxGeometry x="1992" y="191.00428571428574" as="geometry">
            <mxPoint x="44" y="72" as="offset" />
          </mxGeometry>
        </mxCell>
        <mxCell id="0NskJPTef0U1A4S3Pu2u-88" value="A1.1.3" style="text;html=1;align=center;verticalAlign=middle;whiteSpace=wrap;rounded=0;" parent="1" vertex="1">
          <mxGeometry x="1607" y="5" width="60" height="30" as="geometry" />
        </mxCell>
        <mxCell id="0NskJPTef0U1A4S3Pu2u-89" value="A2.2.1" style="text;html=1;align=center;verticalAlign=middle;whiteSpace=wrap;rounded=0;" parent="1" vertex="1">
          <mxGeometry x="1612" y="412" width="60" height="30" as="geometry" />
        </mxCell>
        <mxCell id="0NskJPTef0U1A4S3Pu2u-90" value="Расшифрование сообщения" style="rounded=0;whiteSpace=wrap;html=1;" parent="1" vertex="1">
          <mxGeometry x="1522.5" y="1326.5" width="140" height="90" as="geometry" />
        </mxCell>
        <mxCell id="0NskJPTef0U1A4S3Pu2u-91" value="" style="endArrow=none;html=1;rounded=0;exitX=0;exitY=0.25;exitDx=0;exitDy=0;entryX=0.159;entryY=0.009;entryDx=0;entryDy=0;entryPerimeter=0;" parent="1" source="0NskJPTef0U1A4S3Pu2u-90" target="0NskJPTef0U1A4S3Pu2u-90" edge="1">
          <mxGeometry width="50" height="50" relative="1" as="geometry">
            <mxPoint x="1448.5" y="1436.5" as="sourcePoint" />
            <mxPoint x="1498.5" y="1386.5" as="targetPoint" />
          </mxGeometry>
        </mxCell>
        <mxCell id="0NskJPTef0U1A4S3Pu2u-92" value="" style="endArrow=none;html=1;rounded=0;exitX=0;exitY=0.75;exitDx=0;exitDy=0;entryX=1;entryY=0.75;entryDx=0;entryDy=0;" parent="1" source="0NskJPTef0U1A4S3Pu2u-90" target="0NskJPTef0U1A4S3Pu2u-90" edge="1">
          <mxGeometry width="50" height="50" relative="1" as="geometry">
            <mxPoint x="1652.5" y="1226.5" as="sourcePoint" />
            <mxPoint x="1702.5" y="1176.5" as="targetPoint" />
          </mxGeometry>
        </mxCell>
        <mxCell id="0NskJPTef0U1A4S3Pu2u-93" value="" style="endArrow=none;html=1;rounded=0;exitX=0.5;exitY=1;exitDx=0;exitDy=0;" parent="1" source="0NskJPTef0U1A4S3Pu2u-90" edge="1">
          <mxGeometry width="50" height="50" relative="1" as="geometry">
            <mxPoint x="1592.5" y="1413.5" as="sourcePoint" />
            <mxPoint x="1592.5" y="1393.5" as="targetPoint" />
          </mxGeometry>
        </mxCell>
        <mxCell id="0NskJPTef0U1A4S3Pu2u-94" value="A4.1.2" style="text;html=1;align=center;verticalAlign=middle;whiteSpace=wrap;rounded=0;" parent="1" vertex="1">
          <mxGeometry x="1526.5" y="1391.5" width="60" height="30" as="geometry" />
        </mxCell>
        <mxCell id="0NskJPTef0U1A4S3Pu2u-95" value="" style="endArrow=classic;html=1;rounded=0;exitX=1;exitY=0.5;exitDx=0;exitDy=0;" parent="1" edge="1">
          <mxGeometry width="50" height="50" relative="1" as="geometry">
            <mxPoint x="1662.5" y="1374.08" as="sourcePoint" />
            <mxPoint x="1743.5" y="1374" as="targetPoint" />
          </mxGeometry>
        </mxCell>
        <mxCell id="4M2B03OyiYjb9Eklj8VH-1" value="" style="rounded=0;whiteSpace=wrap;html=1;" parent="1" vertex="1">
          <mxGeometry x="-118" y="555" width="1246" height="617" as="geometry" />
        </mxCell>
        <mxCell id="4M2B03OyiYjb9Eklj8VH-2" value="" style="rounded=0;whiteSpace=wrap;html=1;" parent="1" vertex="1">
          <mxGeometry x="80" y="38" width="447" height="342" as="geometry" />
        </mxCell>
        <mxCell id="4M2B03OyiYjb9Eklj8VH-3" style="edgeStyle=orthogonalEdgeStyle;rounded=0;orthogonalLoop=1;jettySize=auto;html=1;entryX=0;entryY=0.5;entryDx=0;entryDy=0;" parent="1" source="4M2B03OyiYjb9Eklj8VH-4" target="4M2B03OyiYjb9Eklj8VH-16" edge="1">
          <mxGeometry relative="1" as="geometry" />
        </mxCell>
        <mxCell id="4M2B03OyiYjb9Eklj8VH-4" value="Авторизация" style="html=1;whiteSpace=wrap;" parent="1" vertex="1">
          <mxGeometry x="13" y="691" width="180" height="90" as="geometry" />
        </mxCell>
        <mxCell id="4M2B03OyiYjb9Eklj8VH-5" value="" style="endArrow=none;html=1;rounded=0;" parent="1" edge="1">
          <mxGeometry width="50" height="50" relative="1" as="geometry">
            <mxPoint x="13" y="701" as="sourcePoint" />
            <mxPoint x="23" y="691" as="targetPoint" />
          </mxGeometry>
        </mxCell>
        <mxCell id="4M2B03OyiYjb9Eklj8VH-6" value="&lt;font style=&quot;font-size: 11px;&quot;&gt;А0.1&lt;/font&gt;" style="text;html=1;align=center;verticalAlign=middle;whiteSpace=wrap;rounded=0;" parent="1" vertex="1">
          <mxGeometry x="155" y="761" width="40" height="20" as="geometry" />
        </mxCell>
        <mxCell id="4M2B03OyiYjb9Eklj8VH-7" value="" style="endArrow=classic;html=1;rounded=0;" parent="1" edge="1">
          <mxGeometry width="50" height="50" relative="1" as="geometry">
            <mxPoint x="-107" y="735.5699999999999" as="sourcePoint" />
            <mxPoint x="13" y="735.5699999999999" as="targetPoint" />
          </mxGeometry>
        </mxCell>
        <mxCell id="4M2B03OyiYjb9Eklj8VH-8" value="&lt;font style=&quot;font-size: 11px;&quot;&gt;Требование на авторизацию&lt;/font&gt;" style="text;html=1;align=center;verticalAlign=middle;whiteSpace=wrap;rounded=0;" parent="1" vertex="1">
          <mxGeometry x="-107" y="701" width="110" height="30" as="geometry" />
        </mxCell>
        <mxCell id="4M2B03OyiYjb9Eklj8VH-9" value="Наличие&amp;nbsp;&lt;div&gt;параметров авторизации&lt;/div&gt;" style="text;html=1;align=center;verticalAlign=middle;whiteSpace=wrap;rounded=0;" parent="1" vertex="1">
          <mxGeometry y="561" width="110" height="40" as="geometry" />
        </mxCell>
        <mxCell id="4M2B03OyiYjb9Eklj8VH-10" style="edgeStyle=orthogonalEdgeStyle;shape=connector;curved=0;rounded=0;orthogonalLoop=1;jettySize=auto;html=1;strokeColor=default;align=center;verticalAlign=middle;fontFamily=Helvetica;fontSize=11;fontColor=default;labelBackgroundColor=default;startArrow=none;startFill=0;endArrow=blockThin;endFill=1;" parent="1" source="4M2B03OyiYjb9Eklj8VH-11" target="4M2B03OyiYjb9Eklj8VH-61" edge="1">
          <mxGeometry relative="1" as="geometry">
            <Array as="points">
              <mxPoint x="762" y="653" />
              <mxPoint x="905" y="653" />
            </Array>
            <mxPoint x="474" y="612" as="sourcePoint" />
          </mxGeometry>
        </mxCell>
        <mxCell id="4M2B03OyiYjb9Eklj8VH-11" value="Правила шифрования сообщения&lt;div&gt;&lt;br&gt;&lt;/div&gt;" style="text;html=1;align=center;verticalAlign=middle;whiteSpace=wrap;rounded=0;" parent="1" vertex="1">
          <mxGeometry x="714.5" y="587" width="90" height="30" as="geometry" />
        </mxCell>
        <mxCell id="4M2B03OyiYjb9Eklj8VH-12" value="данные авторизированного пользователя" style="text;html=1;align=center;verticalAlign=middle;whiteSpace=wrap;rounded=0;" parent="1" vertex="1">
          <mxGeometry x="151" y="826" width="70" height="40" as="geometry" />
        </mxCell>
        <mxCell id="4M2B03OyiYjb9Eklj8VH-13" value="" style="group" parent="1" connectable="0" vertex="1">
          <mxGeometry x="641" y="956" width="3" height="195" as="geometry" />
        </mxCell>
        <mxCell id="4M2B03OyiYjb9Eklj8VH-14" value="" style="endArrow=classic;html=1;rounded=0;entryX=0.25;entryY=0;entryDx=0;entryDy=0;" parent="4M2B03OyiYjb9Eklj8VH-13" edge="1">
          <mxGeometry width="50" height="50" relative="1" as="geometry">
            <mxPoint y="195" as="sourcePoint" />
            <mxPoint as="targetPoint" />
          </mxGeometry>
        </mxCell>
        <mxCell id="4M2B03OyiYjb9Eklj8VH-15" value="" style="group" parent="1" connectable="0" vertex="1">
          <mxGeometry x="253" y="783" width="182" height="90" as="geometry" />
        </mxCell>
        <mxCell id="4M2B03OyiYjb9Eklj8VH-16" value="Выбор чата" style="html=1;whiteSpace=wrap;" parent="4M2B03OyiYjb9Eklj8VH-15" vertex="1">
          <mxGeometry width="180" height="90" as="geometry" />
        </mxCell>
        <mxCell id="4M2B03OyiYjb9Eklj8VH-17" value="" style="endArrow=none;html=1;rounded=0;" parent="4M2B03OyiYjb9Eklj8VH-15" edge="1">
          <mxGeometry width="50" height="50" relative="1" as="geometry">
            <mxPoint y="10" as="sourcePoint" />
            <mxPoint x="10" as="targetPoint" />
          </mxGeometry>
        </mxCell>
        <mxCell id="4M2B03OyiYjb9Eklj8VH-18" value="&lt;font style=&quot;font-size: 11px;&quot;&gt;А0.2&lt;/font&gt;" style="text;html=1;align=center;verticalAlign=middle;whiteSpace=wrap;rounded=0;" parent="4M2B03OyiYjb9Eklj8VH-15" vertex="1">
          <mxGeometry x="142" y="70" width="40" height="20" as="geometry" />
        </mxCell>
        <mxCell id="4M2B03OyiYjb9Eklj8VH-19" value="" style="group" parent="1" connectable="0" vertex="1">
          <mxGeometry x="513" y="866" width="182" height="90" as="geometry" />
        </mxCell>
        <mxCell id="4M2B03OyiYjb9Eklj8VH-20" value="Отправка сообщения" style="html=1;whiteSpace=wrap;" parent="4M2B03OyiYjb9Eklj8VH-19" vertex="1">
          <mxGeometry width="180" height="90" as="geometry" />
        </mxCell>
        <mxCell id="4M2B03OyiYjb9Eklj8VH-21" value="" style="endArrow=none;html=1;rounded=0;" parent="4M2B03OyiYjb9Eklj8VH-19" edge="1">
          <mxGeometry width="50" height="50" relative="1" as="geometry">
            <mxPoint y="10" as="sourcePoint" />
            <mxPoint x="10" as="targetPoint" />
          </mxGeometry>
        </mxCell>
        <mxCell id="4M2B03OyiYjb9Eklj8VH-22" value="&lt;font style=&quot;font-size: 11px;&quot;&gt;А0.3&lt;/font&gt;" style="text;html=1;align=center;verticalAlign=middle;whiteSpace=wrap;rounded=0;" parent="4M2B03OyiYjb9Eklj8VH-19" vertex="1">
          <mxGeometry x="142" y="70" width="40" height="20" as="geometry" />
        </mxCell>
        <mxCell id="4M2B03OyiYjb9Eklj8VH-23" style="edgeStyle=orthogonalEdgeStyle;rounded=0;orthogonalLoop=1;jettySize=auto;html=1;entryX=0;entryY=0.5;entryDx=0;entryDy=0;" parent="1" source="4M2B03OyiYjb9Eklj8VH-16" target="4M2B03OyiYjb9Eklj8VH-20" edge="1">
          <mxGeometry relative="1" as="geometry" />
        </mxCell>
        <mxCell id="4M2B03OyiYjb9Eklj8VH-24" value="выбранный чат" style="text;html=1;align=center;verticalAlign=middle;whiteSpace=wrap;rounded=0;" parent="1" vertex="1">
          <mxGeometry x="368" y="883" width="110" height="40" as="geometry" />
        </mxCell>
        <mxCell id="4M2B03OyiYjb9Eklj8VH-25" value="" style="endArrow=classic;html=1;rounded=0;entryX=-0.009;entryY=0.556;entryDx=0;entryDy=0;entryPerimeter=0;edgeStyle=orthogonalEdgeStyle;" parent="1" target="4M2B03OyiYjb9Eklj8VH-61" edge="1">
          <mxGeometry width="50" height="50" relative="1" as="geometry">
            <mxPoint x="693" y="920.5699999999999" as="sourcePoint" />
            <mxPoint x="813" y="921" as="targetPoint" />
          </mxGeometry>
        </mxCell>
        <mxCell id="4M2B03OyiYjb9Eklj8VH-26" value="отправленное сообщение" style="text;html=1;align=center;verticalAlign=middle;whiteSpace=wrap;rounded=0;" parent="1" vertex="1">
          <mxGeometry x="722" y="877" width="75" height="38" as="geometry" />
        </mxCell>
        <mxCell id="4M2B03OyiYjb9Eklj8VH-27" value="" style="endArrow=classic;html=1;rounded=0;edgeStyle=orthogonalEdgeStyle;" parent="1" edge="1">
          <mxGeometry width="50" height="50" relative="1" as="geometry">
            <mxPoint x="82" y="1068" as="sourcePoint" />
            <mxPoint x="82" y="782" as="targetPoint" />
          </mxGeometry>
        </mxCell>
        <mxCell id="4M2B03OyiYjb9Eklj8VH-28" value="Клиент" style="text;html=1;align=center;verticalAlign=middle;whiteSpace=wrap;rounded=0;" parent="1" vertex="1">
          <mxGeometry x="263" y="1101" width="60" height="40" as="geometry" />
        </mxCell>
        <mxCell id="4M2B03OyiYjb9Eklj8VH-29" value="Веб-приложение" style="text;html=1;align=center;verticalAlign=middle;whiteSpace=wrap;rounded=0;" parent="1" vertex="1">
          <mxGeometry x="363" y="1101" width="100" height="40" as="geometry" />
        </mxCell>
        <mxCell id="4M2B03OyiYjb9Eklj8VH-30" value="" style="endArrow=classic;html=1;rounded=0;edgeStyle=orthogonalEdgeStyle;" parent="1" edge="1">
          <mxGeometry width="50" height="50" relative="1" as="geometry">
            <mxPoint x="119" y="1021" as="sourcePoint" />
            <mxPoint x="119" y="782" as="targetPoint" />
          </mxGeometry>
        </mxCell>
        <mxCell id="4M2B03OyiYjb9Eklj8VH-31" value="" style="endArrow=classic;html=1;rounded=0;entryX=0.594;entryY=1.043;entryDx=0;entryDy=0;entryPerimeter=0;" parent="1" edge="1">
          <mxGeometry width="50" height="50" relative="1" as="geometry">
            <mxPoint x="356" y="1151" as="sourcePoint" />
            <mxPoint x="356.0000000000001" y="872.9999999999999" as="targetPoint" />
          </mxGeometry>
        </mxCell>
        <mxCell id="4M2B03OyiYjb9Eklj8VH-32" value="" style="endArrow=classic;html=1;rounded=0;entryX=0.594;entryY=1.043;entryDx=0;entryDy=0;entryPerimeter=0;" parent="1" edge="1">
          <mxGeometry width="50" height="50" relative="1" as="geometry">
            <mxPoint x="318" y="1041" as="sourcePoint" />
            <mxPoint x="318.0000000000001" y="872.9999999999999" as="targetPoint" />
          </mxGeometry>
        </mxCell>
        <mxCell id="4M2B03OyiYjb9Eklj8VH-33" value="" style="endArrow=classic;html=1;rounded=0;entryX=0.594;entryY=1.043;entryDx=0;entryDy=0;entryPerimeter=0;" parent="1" edge="1">
          <mxGeometry width="50" height="50" relative="1" as="geometry">
            <mxPoint x="563" y="1021" as="sourcePoint" />
            <mxPoint x="563.0000000000001" y="955.9999999999999" as="targetPoint" />
          </mxGeometry>
        </mxCell>
        <mxCell id="4M2B03OyiYjb9Eklj8VH-34" value="" style="endArrow=classic;html=1;rounded=0;" parent="1" edge="1">
          <mxGeometry width="50" height="50" relative="1" as="geometry">
            <mxPoint x="602.96" y="1068" as="sourcePoint" />
            <mxPoint x="602.96" y="956" as="targetPoint" />
          </mxGeometry>
        </mxCell>
        <mxCell id="4M2B03OyiYjb9Eklj8VH-35" value="" style="endArrow=none;html=1;rounded=0;edgeStyle=orthogonalEdgeStyle;" parent="1" edge="1">
          <mxGeometry width="50" height="50" relative="1" as="geometry">
            <mxPoint x="318" y="1151" as="sourcePoint" />
            <mxPoint x="318" y="1041" as="targetPoint" />
          </mxGeometry>
        </mxCell>
        <mxCell id="4M2B03OyiYjb9Eklj8VH-36" value="" style="endArrow=none;html=1;rounded=1;edgeStyle=orthogonalEdgeStyle;curved=0;" parent="1" edge="1">
          <mxGeometry width="50" height="50" relative="1" as="geometry">
            <mxPoint x="355.9981818181818" y="1099" as="sourcePoint" />
            <mxPoint x="603" y="1069" as="targetPoint" />
            <Array as="points">
              <mxPoint x="355.9981818181818" y="1089" />
              <mxPoint x="355.9981818181818" y="1069" />
            </Array>
          </mxGeometry>
        </mxCell>
        <mxCell id="4M2B03OyiYjb9Eklj8VH-37" value="" style="endArrow=none;html=1;rounded=1;edgeStyle=orthogonalEdgeStyle;curved=0;" parent="1" edge="1">
          <mxGeometry width="50" height="50" relative="1" as="geometry">
            <mxPoint x="318" y="1051" as="sourcePoint" />
            <mxPoint x="119" y="1021" as="targetPoint" />
            <Array as="points">
              <mxPoint x="318" y="1041" />
              <mxPoint x="318" y="1021" />
            </Array>
          </mxGeometry>
        </mxCell>
        <mxCell id="4M2B03OyiYjb9Eklj8VH-38" value="" style="endArrow=none;html=1;rounded=1;edgeStyle=orthogonalEdgeStyle;curved=0;" parent="1" edge="1">
          <mxGeometry width="50" height="50" relative="1" as="geometry">
            <mxPoint x="318" y="1051" as="sourcePoint" />
            <mxPoint x="563" y="1021" as="targetPoint" />
            <Array as="points">
              <mxPoint x="318" y="1041" />
              <mxPoint x="318" y="1021" />
            </Array>
          </mxGeometry>
        </mxCell>
        <mxCell id="4M2B03OyiYjb9Eklj8VH-39" value="Уведомительная система" style="text;html=1;align=center;verticalAlign=middle;whiteSpace=wrap;rounded=0;" parent="1" vertex="1">
          <mxGeometry x="541" y="1109.18" width="100" height="31.82" as="geometry" />
        </mxCell>
        <mxCell id="4M2B03OyiYjb9Eklj8VH-40" style="edgeStyle=orthogonalEdgeStyle;rounded=0;orthogonalLoop=1;jettySize=auto;html=1;" parent="1" source="4M2B03OyiYjb9Eklj8VH-9" target="4M2B03OyiYjb9Eklj8VH-4" edge="1">
          <mxGeometry relative="1" as="geometry">
            <Array as="points">
              <mxPoint x="55" y="647" />
              <mxPoint x="107" y="647" />
            </Array>
          </mxGeometry>
        </mxCell>
        <mxCell id="4M2B03OyiYjb9Eklj8VH-41" style="edgeStyle=orthogonalEdgeStyle;rounded=0;orthogonalLoop=1;jettySize=auto;html=1;" parent="1" source="4M2B03OyiYjb9Eklj8VH-11" target="4M2B03OyiYjb9Eklj8VH-20" edge="1">
          <mxGeometry relative="1" as="geometry">
            <mxPoint x="356" y="781" as="targetPoint" />
            <Array as="points">
              <mxPoint x="762" y="653" />
              <mxPoint x="603" y="653" />
            </Array>
            <mxPoint x="474" y="612" as="sourcePoint" />
          </mxGeometry>
        </mxCell>
        <mxCell id="4M2B03OyiYjb9Eklj8VH-42" value="" style="endArrow=none;html=1;rounded=1;edgeStyle=orthogonalEdgeStyle;curved=0;" parent="1" edge="1">
          <mxGeometry width="50" height="50" relative="1" as="geometry">
            <mxPoint x="356" y="1098" as="sourcePoint" />
            <mxPoint x="82" y="1068" as="targetPoint" />
            <Array as="points">
              <mxPoint x="356" y="1088" />
              <mxPoint x="356" y="1068" />
            </Array>
          </mxGeometry>
        </mxCell>
        <mxCell id="4M2B03OyiYjb9Eklj8VH-43" value="&lt;div&gt;Обеспечить коммуникацию между пользователями&lt;/div&gt;" style="html=1;whiteSpace=wrap;" parent="1" vertex="1">
          <mxGeometry x="212" y="164" width="180" height="90" as="geometry" />
        </mxCell>
        <mxCell id="4M2B03OyiYjb9Eklj8VH-44" value="" style="endArrow=none;html=1;rounded=0;" parent="1" edge="1">
          <mxGeometry width="50" height="50" relative="1" as="geometry">
            <mxPoint x="212" y="174" as="sourcePoint" />
            <mxPoint x="222" y="164" as="targetPoint" />
          </mxGeometry>
        </mxCell>
        <mxCell id="4M2B03OyiYjb9Eklj8VH-45" value="&lt;font style=&quot;font-size: 11px;&quot;&gt;А0&lt;/font&gt;" style="text;html=1;align=center;verticalAlign=middle;whiteSpace=wrap;rounded=0;" parent="1" vertex="1">
          <mxGeometry x="358" y="234" width="40" height="20" as="geometry" />
        </mxCell>
        <mxCell id="4M2B03OyiYjb9Eklj8VH-46" value="" style="endArrow=classic;html=1;rounded=0;entryX=0.25;entryY=0;entryDx=0;entryDy=0;" parent="1" edge="1">
          <mxGeometry width="50" height="50" relative="1" as="geometry">
            <mxPoint x="282" y="54" as="sourcePoint" />
            <mxPoint x="282" y="164" as="targetPoint" />
          </mxGeometry>
        </mxCell>
        <mxCell id="4M2B03OyiYjb9Eklj8VH-47" value="" style="endArrow=classic;html=1;rounded=0;entryX=0.25;entryY=0;entryDx=0;entryDy=0;" parent="1" edge="1">
          <mxGeometry width="50" height="50" relative="1" as="geometry">
            <mxPoint x="318" y="54" as="sourcePoint" />
            <mxPoint x="318" y="164" as="targetPoint" />
          </mxGeometry>
        </mxCell>
        <mxCell id="4M2B03OyiYjb9Eklj8VH-48" value="" style="endArrow=classic;html=1;rounded=0;entryX=0.25;entryY=0;entryDx=0;entryDy=0;" parent="1" edge="1">
          <mxGeometry width="50" height="50" relative="1" as="geometry">
            <mxPoint x="235" y="364" as="sourcePoint" />
            <mxPoint x="235" y="254" as="targetPoint" />
          </mxGeometry>
        </mxCell>
        <mxCell id="4M2B03OyiYjb9Eklj8VH-49" value="" style="endArrow=classic;html=1;rounded=0;" parent="1" edge="1">
          <mxGeometry width="50" height="50" relative="1" as="geometry">
            <mxPoint x="92" y="208.57" as="sourcePoint" />
            <mxPoint x="212" y="208.57" as="targetPoint" />
          </mxGeometry>
        </mxCell>
        <mxCell id="4M2B03OyiYjb9Eklj8VH-50" value="" style="endArrow=classic;html=1;rounded=0;" parent="1" edge="1">
          <mxGeometry width="50" height="50" relative="1" as="geometry">
            <mxPoint x="392" y="208.57" as="sourcePoint" />
            <mxPoint x="512" y="208.57" as="targetPoint" />
          </mxGeometry>
        </mxCell>
        <mxCell id="4M2B03OyiYjb9Eklj8VH-51" value="&lt;font style=&quot;font-size: 11px;&quot;&gt;Требования клиента на отправку сообщения&lt;/font&gt;" style="text;html=1;align=center;verticalAlign=middle;whiteSpace=wrap;rounded=0;" parent="1" vertex="1">
          <mxGeometry x="78" y="172" width="131" height="30" as="geometry" />
        </mxCell>
        <mxCell id="4M2B03OyiYjb9Eklj8VH-52" value="Наличие&amp;nbsp;&lt;div&gt;шифр ключа&lt;/div&gt;" style="text;html=1;align=center;verticalAlign=middle;whiteSpace=wrap;rounded=0;" parent="1" vertex="1">
          <mxGeometry x="184" y="84" width="110" height="40" as="geometry" />
        </mxCell>
        <mxCell id="4M2B03OyiYjb9Eklj8VH-53" value="Правила шифрования сообщения" style="text;html=1;align=center;verticalAlign=middle;whiteSpace=wrap;rounded=0;" parent="1" vertex="1">
          <mxGeometry x="322" y="89" width="134" height="30" as="geometry" />
        </mxCell>
        <mxCell id="4M2B03OyiYjb9Eklj8VH-54" value="Клиент" style="text;html=1;align=center;verticalAlign=middle;whiteSpace=wrap;rounded=0;" parent="1" vertex="1">
          <mxGeometry x="159" y="285" width="100" height="40" as="geometry" />
        </mxCell>
        <mxCell id="4M2B03OyiYjb9Eklj8VH-55" value="передача сообщения в зашифрованном виде" style="text;html=1;align=center;verticalAlign=middle;whiteSpace=wrap;rounded=0;" parent="1" vertex="1">
          <mxGeometry x="394" y="164" width="133" height="40" as="geometry" />
        </mxCell>
        <mxCell id="4M2B03OyiYjb9Eklj8VH-56" value="Веб-приложение" style="text;html=1;align=center;verticalAlign=middle;whiteSpace=wrap;rounded=0;" parent="1" vertex="1">
          <mxGeometry x="374" y="289.09" width="100" height="31.82" as="geometry" />
        </mxCell>
        <mxCell id="4M2B03OyiYjb9Eklj8VH-57" value="" style="endArrow=classic;html=1;rounded=0;entryX=0.25;entryY=0;entryDx=0;entryDy=0;" parent="1" edge="1">
          <mxGeometry width="50" height="50" relative="1" as="geometry">
            <mxPoint x="372" y="364" as="sourcePoint" />
            <mxPoint x="372" y="254" as="targetPoint" />
          </mxGeometry>
        </mxCell>
        <mxCell id="4M2B03OyiYjb9Eklj8VH-58" style="edgeStyle=orthogonalEdgeStyle;shape=connector;rounded=0;orthogonalLoop=1;jettySize=auto;html=1;exitX=0.25;exitY=1;exitDx=0;exitDy=0;strokeColor=default;align=center;verticalAlign=middle;fontFamily=Helvetica;fontSize=11;fontColor=default;labelBackgroundColor=default;endArrow=none;endFill=0;startArrow=blockThin;startFill=1;curved=0;" parent="1" source="4M2B03OyiYjb9Eklj8VH-61" edge="1">
          <mxGeometry relative="1" as="geometry">
            <mxPoint x="382" y="1069" as="targetPoint" />
            <Array as="points">
              <mxPoint x="875" y="1069" />
            </Array>
          </mxGeometry>
        </mxCell>
        <mxCell id="4M2B03OyiYjb9Eklj8VH-59" style="edgeStyle=orthogonalEdgeStyle;shape=connector;curved=0;rounded=0;orthogonalLoop=1;jettySize=auto;html=1;strokeColor=default;align=center;verticalAlign=middle;fontFamily=Helvetica;fontSize=11;fontColor=default;labelBackgroundColor=default;startArrow=blockThin;startFill=1;endArrow=none;endFill=0;" parent="1" source="4M2B03OyiYjb9Eklj8VH-61" edge="1">
          <mxGeometry relative="1" as="geometry">
            <mxPoint x="640.2381301153273" y="1152.952404203869" as="targetPoint" />
            <Array as="points">
              <mxPoint x="905" y="1004" />
              <mxPoint x="641" y="1004" />
              <mxPoint x="641" y="1153" />
            </Array>
          </mxGeometry>
        </mxCell>
        <mxCell id="4M2B03OyiYjb9Eklj8VH-60" style="edgeStyle=orthogonalEdgeStyle;shape=connector;curved=0;rounded=0;orthogonalLoop=1;jettySize=auto;html=1;strokeColor=default;align=center;verticalAlign=middle;fontFamily=Helvetica;fontSize=11;fontColor=default;labelBackgroundColor=default;startArrow=none;startFill=0;endArrow=blockThin;endFill=1;" parent="1" source="4M2B03OyiYjb9Eklj8VH-61" edge="1">
          <mxGeometry relative="1" as="geometry">
            <mxPoint x="1092" y="941" as="targetPoint" />
          </mxGeometry>
        </mxCell>
        <mxCell id="4M2B03OyiYjb9Eklj8VH-61" value="Получение ответа на сообщение" style="html=1;whiteSpace=wrap;" parent="1" vertex="1">
          <mxGeometry x="830" y="896" width="180" height="90" as="geometry" />
        </mxCell>
        <mxCell id="4M2B03OyiYjb9Eklj8VH-62" value="полученный ответ" style="text;html=1;align=center;verticalAlign=middle;whiteSpace=wrap;rounded=0;" parent="1" vertex="1">
          <mxGeometry x="1009" y="892" width="117" height="38" as="geometry" />
        </mxCell>
        <mxCell id="4M2B03OyiYjb9Eklj8VH-63" value="&lt;font style=&quot;font-size: 11px;&quot;&gt;А0.4&lt;/font&gt;" style="text;html=1;align=center;verticalAlign=middle;whiteSpace=wrap;rounded=0;" parent="1" vertex="1">
          <mxGeometry x="970" y="966" width="40" height="20" as="geometry" />
        </mxCell>
        <mxCell id="4M2B03OyiYjb9Eklj8VH-64" style="edgeStyle=orthogonalEdgeStyle;rounded=0;orthogonalLoop=1;jettySize=auto;html=1;exitX=0.5;exitY=1;exitDx=0;exitDy=0;" parent="1" source="4M2B03OyiYjb9Eklj8VH-65" target="4M2B03OyiYjb9Eklj8VH-16" edge="1">
          <mxGeometry relative="1" as="geometry">
            <Array as="points">
              <mxPoint x="343" y="631" />
              <mxPoint x="343" y="631" />
            </Array>
          </mxGeometry>
        </mxCell>
        <mxCell id="4M2B03OyiYjb9Eklj8VH-65" value="наличие шифр ключа" style="text;html=1;align=center;verticalAlign=middle;whiteSpace=wrap;rounded=0;" parent="1" vertex="1">
          <mxGeometry x="288" y="571" width="110" height="40" as="geometry" />
        </mxCell>
        <mxCell id="4M2B03OyiYjb9Eklj8VH-66" value="правила шифрования" style="text;html=1;align=center;verticalAlign=middle;whiteSpace=wrap;rounded=0;" parent="1" vertex="1">
          <mxGeometry x="113" y="561" width="110" height="40" as="geometry" />
        </mxCell>
        <mxCell id="4M2B03OyiYjb9Eklj8VH-67" style="edgeStyle=orthogonalEdgeStyle;rounded=0;orthogonalLoop=1;jettySize=auto;html=1;" parent="1" source="4M2B03OyiYjb9Eklj8VH-66" target="4M2B03OyiYjb9Eklj8VH-4" edge="1">
          <mxGeometry relative="1" as="geometry">
            <Array as="points">
              <mxPoint x="172" y="647" />
              <mxPoint x="106" y="647" />
            </Array>
          </mxGeometry>
        </mxCell>
        <mxCell id="4M2B03OyiYjb9Eklj8VH-68" style="edgeStyle=orthogonalEdgeStyle;rounded=0;orthogonalLoop=1;jettySize=auto;html=1;" parent="1" source="4M2B03OyiYjb9Eklj8VH-69" target="4M2B03OyiYjb9Eklj8VH-20" edge="1">
          <mxGeometry relative="1" as="geometry">
            <Array as="points">
              <mxPoint x="498" y="941" />
              <mxPoint x="498" y="925" />
            </Array>
          </mxGeometry>
        </mxCell>
        <mxCell id="4M2B03OyiYjb9Eklj8VH-69" value="данные сообщения" style="text;html=1;align=center;verticalAlign=middle;whiteSpace=wrap;rounded=0;" parent="1" vertex="1">
          <mxGeometry x="355" y="921" width="110" height="40" as="geometry" />
        </mxCell>
        <mxCell id="4M2B03OyiYjb9Eklj8VH-70" value="&lt;div style=&quot;&quot;&gt;&lt;span style=&quot;font-size: 11px; text-wrap: nowrap;&quot;&gt;Данные&amp;nbsp;&lt;/span&gt;&lt;/div&gt;&lt;div style=&quot;forced-color-adjust: none; color: rgb(0, 0, 0); font-family: Helvetica; font-size: 11px; font-style: normal; font-variant-ligatures: normal; font-variant-caps: normal; font-weight: 400; letter-spacing: normal; orphans: 2; text-indent: 0px; text-transform: none; widows: 2; word-spacing: 0px; -webkit-text-stroke-width: 0px; white-space: nowrap; text-decoration-thickness: initial; text-decoration-style: initial; text-decoration-color: initial;&quot;&gt;авторизированного&amp;nbsp;&lt;/div&gt;&lt;div style=&quot;forced-color-adjust: none; color: rgb(0, 0, 0); font-family: Helvetica; font-size: 11px; font-style: normal; font-variant-ligatures: normal; font-variant-caps: normal; font-weight: 400; letter-spacing: normal; orphans: 2; text-indent: 0px; text-transform: none; widows: 2; word-spacing: 0px; -webkit-text-stroke-width: 0px; white-space: nowrap; text-decoration-thickness: initial; text-decoration-style: initial; text-decoration-color: initial;&quot;&gt;пользователя&lt;/div&gt;" style="text;whiteSpace=wrap;html=1;align=center;" parent="1" vertex="1">
          <mxGeometry x="2408" y="-179" width="130" height="60" as="geometry" />
        </mxCell>
        <mxCell id="4M2B03OyiYjb9Eklj8VH-73" value="Шифр ключ" style="rounded=0;whiteSpace=wrap;html=1;" parent="1" vertex="1">
          <mxGeometry x="1145" y="252" width="140" height="70" as="geometry" />
        </mxCell>
        <mxCell id="4M2B03OyiYjb9Eklj8VH-74" value="" style="endArrow=none;html=1;rounded=0;exitX=0;exitY=0.25;exitDx=0;exitDy=0;entryX=0.159;entryY=0.009;entryDx=0;entryDy=0;entryPerimeter=0;" parent="1" source="4M2B03OyiYjb9Eklj8VH-73" target="4M2B03OyiYjb9Eklj8VH-73" edge="1">
          <mxGeometry width="50" height="50" relative="1" as="geometry">
            <mxPoint x="1072" y="365" as="sourcePoint" />
            <mxPoint x="1122" y="315" as="targetPoint" />
          </mxGeometry>
        </mxCell>
        <mxCell id="4M2B03OyiYjb9Eklj8VH-75" value="" style="endArrow=none;dashed=1;html=1;rounded=0;entryX=1;entryY=0.5;entryDx=0;entryDy=0;" parent="1" source="0NskJPTef0U1A4S3Pu2u-45" target="4M2B03OyiYjb9Eklj8VH-73" edge="1">
          <mxGeometry width="50" height="50" relative="1" as="geometry">
            <mxPoint x="1407" y="382" as="sourcePoint" />
            <mxPoint x="1407" y="342" as="targetPoint" />
          </mxGeometry>
        </mxCell>
        <mxCell id="4M2B03OyiYjb9Eklj8VH-77" value="Ввод шифро ключа" style="rounded=0;whiteSpace=wrap;html=1;" parent="1" vertex="1">
          <mxGeometry x="1795" y="131" width="140" height="90" as="geometry" />
        </mxCell>
        <mxCell id="4M2B03OyiYjb9Eklj8VH-78" value="" style="endArrow=none;html=1;rounded=0;exitX=0;exitY=0.25;exitDx=0;exitDy=0;entryX=0.159;entryY=0.009;entryDx=0;entryDy=0;entryPerimeter=0;" parent="1" source="4M2B03OyiYjb9Eklj8VH-77" target="4M2B03OyiYjb9Eklj8VH-77" edge="1">
          <mxGeometry width="50" height="50" relative="1" as="geometry">
            <mxPoint x="1720.5" y="241" as="sourcePoint" />
            <mxPoint x="1770.5" y="191" as="targetPoint" />
          </mxGeometry>
        </mxCell>
        <mxCell id="4M2B03OyiYjb9Eklj8VH-79" value="" style="endArrow=none;html=1;rounded=0;exitX=0;exitY=0.75;exitDx=0;exitDy=0;entryX=1;entryY=0.75;entryDx=0;entryDy=0;" parent="1" source="4M2B03OyiYjb9Eklj8VH-77" target="4M2B03OyiYjb9Eklj8VH-77" edge="1">
          <mxGeometry width="50" height="50" relative="1" as="geometry">
            <mxPoint x="1924.5" y="31" as="sourcePoint" />
            <mxPoint x="1974.5" y="-19" as="targetPoint" />
          </mxGeometry>
        </mxCell>
        <mxCell id="4M2B03OyiYjb9Eklj8VH-80" value="" style="endArrow=none;html=1;rounded=0;exitX=0.5;exitY=1;exitDx=0;exitDy=0;" parent="1" source="4M2B03OyiYjb9Eklj8VH-77" edge="1">
          <mxGeometry width="50" height="50" relative="1" as="geometry">
            <mxPoint x="1864.5" y="218" as="sourcePoint" />
            <mxPoint x="1864.5" y="198" as="targetPoint" />
          </mxGeometry>
        </mxCell>
        <mxCell id="4M2B03OyiYjb9Eklj8VH-81" value="A2.1.2" style="text;html=1;align=center;verticalAlign=middle;whiteSpace=wrap;rounded=0;" parent="1" vertex="1">
          <mxGeometry x="1798.5" y="196" width="60" height="30" as="geometry" />
        </mxCell>
        <mxCell id="4M2B03OyiYjb9Eklj8VH-83" style="edgeStyle=orthogonalEdgeStyle;rounded=0;orthogonalLoop=1;jettySize=auto;html=1;entryX=0.5;entryY=0;entryDx=0;entryDy=0;" parent="1" source="4M2B03OyiYjb9Eklj8VH-77" target="0NskJPTef0U1A4S3Pu2u-76" edge="1">
          <mxGeometry relative="1" as="geometry" />
        </mxCell>
        <mxCell id="4M2B03OyiYjb9Eklj8VH-101" style="edgeStyle=orthogonalEdgeStyle;rounded=0;orthogonalLoop=1;jettySize=auto;html=1;" parent="1" source="4M2B03OyiYjb9Eklj8VH-88" target="4M2B03OyiYjb9Eklj8VH-93" edge="1">
          <mxGeometry relative="1" as="geometry" />
        </mxCell>
        <mxCell id="4M2B03OyiYjb9Eklj8VH-88" value="Пройти валидацию" style="rounded=0;whiteSpace=wrap;html=1;" parent="1" vertex="1">
          <mxGeometry x="1938" y="-167.5" width="140" height="90" as="geometry" />
        </mxCell>
        <mxCell id="4M2B03OyiYjb9Eklj8VH-89" value="" style="endArrow=none;html=1;rounded=0;exitX=0;exitY=0.25;exitDx=0;exitDy=0;entryX=0.159;entryY=0.009;entryDx=0;entryDy=0;entryPerimeter=0;" parent="1" source="4M2B03OyiYjb9Eklj8VH-88" target="4M2B03OyiYjb9Eklj8VH-88" edge="1">
          <mxGeometry width="50" height="50" relative="1" as="geometry">
            <mxPoint x="1864" y="-57.5" as="sourcePoint" />
            <mxPoint x="1914" y="-107.5" as="targetPoint" />
          </mxGeometry>
        </mxCell>
        <mxCell id="4M2B03OyiYjb9Eklj8VH-90" value="" style="endArrow=none;html=1;rounded=0;exitX=0;exitY=0.75;exitDx=0;exitDy=0;entryX=1;entryY=0.75;entryDx=0;entryDy=0;" parent="1" source="4M2B03OyiYjb9Eklj8VH-88" target="4M2B03OyiYjb9Eklj8VH-88" edge="1">
          <mxGeometry width="50" height="50" relative="1" as="geometry">
            <mxPoint x="2068" y="-267.5" as="sourcePoint" />
            <mxPoint x="2118" y="-317.5" as="targetPoint" />
          </mxGeometry>
        </mxCell>
        <mxCell id="4M2B03OyiYjb9Eklj8VH-91" value="" style="endArrow=none;html=1;rounded=0;exitX=0.5;exitY=1;exitDx=0;exitDy=0;" parent="1" source="4M2B03OyiYjb9Eklj8VH-88" edge="1">
          <mxGeometry width="50" height="50" relative="1" as="geometry">
            <mxPoint x="2008" y="-80.5" as="sourcePoint" />
            <mxPoint x="2008" y="-100.5" as="targetPoint" />
          </mxGeometry>
        </mxCell>
        <mxCell id="4M2B03OyiYjb9Eklj8VH-92" value="A1.1.4" style="text;html=1;align=center;verticalAlign=middle;whiteSpace=wrap;rounded=0;" parent="1" vertex="1">
          <mxGeometry x="1942" y="-102.5" width="60" height="30" as="geometry" />
        </mxCell>
        <mxCell id="4M2B03OyiYjb9Eklj8VH-102" style="edgeStyle=orthogonalEdgeStyle;rounded=0;orthogonalLoop=1;jettySize=auto;html=1;" parent="1" source="4M2B03OyiYjb9Eklj8VH-93" target="0NskJPTef0U1A4S3Pu2u-28" edge="1">
          <mxGeometry relative="1" as="geometry" />
        </mxCell>
        <mxCell id="4M2B03OyiYjb9Eklj8VH-93" value="предоставить права доступа" style="rounded=0;whiteSpace=wrap;html=1;" parent="1" vertex="1">
          <mxGeometry x="2107" y="-167" width="140" height="90" as="geometry" />
        </mxCell>
        <mxCell id="4M2B03OyiYjb9Eklj8VH-94" value="" style="endArrow=none;html=1;rounded=0;exitX=0;exitY=0.25;exitDx=0;exitDy=0;entryX=0.159;entryY=0.009;entryDx=0;entryDy=0;entryPerimeter=0;" parent="1" source="4M2B03OyiYjb9Eklj8VH-93" target="4M2B03OyiYjb9Eklj8VH-93" edge="1">
          <mxGeometry width="50" height="50" relative="1" as="geometry">
            <mxPoint x="2033" y="-57" as="sourcePoint" />
            <mxPoint x="2083" y="-107" as="targetPoint" />
          </mxGeometry>
        </mxCell>
        <mxCell id="4M2B03OyiYjb9Eklj8VH-95" value="" style="endArrow=none;html=1;rounded=0;exitX=0;exitY=0.75;exitDx=0;exitDy=0;entryX=1;entryY=0.75;entryDx=0;entryDy=0;" parent="1" source="4M2B03OyiYjb9Eklj8VH-93" target="4M2B03OyiYjb9Eklj8VH-93" edge="1">
          <mxGeometry width="50" height="50" relative="1" as="geometry">
            <mxPoint x="2237" y="-267" as="sourcePoint" />
            <mxPoint x="2287" y="-317" as="targetPoint" />
          </mxGeometry>
        </mxCell>
        <mxCell id="4M2B03OyiYjb9Eklj8VH-96" value="" style="endArrow=none;html=1;rounded=0;exitX=0.5;exitY=1;exitDx=0;exitDy=0;" parent="1" source="4M2B03OyiYjb9Eklj8VH-93" edge="1">
          <mxGeometry width="50" height="50" relative="1" as="geometry">
            <mxPoint x="2177" y="-80" as="sourcePoint" />
            <mxPoint x="2177" y="-100" as="targetPoint" />
          </mxGeometry>
        </mxCell>
        <mxCell id="4M2B03OyiYjb9Eklj8VH-97" value="A1.1.5" style="text;html=1;align=center;verticalAlign=middle;whiteSpace=wrap;rounded=0;" parent="1" vertex="1">
          <mxGeometry x="2111" y="-102" width="60" height="30" as="geometry" />
        </mxCell>
        <mxCell id="Q5682_6Dmk4dM7YaqGry-86" value="&lt;font face=&quot;Helvetica&quot;&gt;Подача заявки на бронирование тура&lt;/font&gt;" style="rounded=0;whiteSpace=wrap;html=1;" vertex="1" parent="1">
          <mxGeometry x="2289" y="837" width="140" height="90" as="geometry" />
        </mxCell>
        <mxCell id="Q5682_6Dmk4dM7YaqGry-87" value="" style="endArrow=none;html=1;rounded=0;exitX=0;exitY=0.25;exitDx=0;exitDy=0;entryX=0.159;entryY=0.009;entryDx=0;entryDy=0;entryPerimeter=0;" edge="1" parent="1" source="Q5682_6Dmk4dM7YaqGry-86" target="Q5682_6Dmk4dM7YaqGry-86">
          <mxGeometry width="50" height="50" relative="1" as="geometry">
            <mxPoint x="2215" y="947" as="sourcePoint" />
            <mxPoint x="2265" y="897" as="targetPoint" />
          </mxGeometry>
        </mxCell>
        <mxCell id="Q5682_6Dmk4dM7YaqGry-88" value="" style="endArrow=none;html=1;rounded=0;exitX=0;exitY=0.75;exitDx=0;exitDy=0;entryX=1;entryY=0.75;entryDx=0;entryDy=0;" edge="1" parent="1" source="Q5682_6Dmk4dM7YaqGry-86" target="Q5682_6Dmk4dM7YaqGry-86">
          <mxGeometry width="50" height="50" relative="1" as="geometry">
            <mxPoint x="2419" y="737" as="sourcePoint" />
            <mxPoint x="2469" y="687" as="targetPoint" />
          </mxGeometry>
        </mxCell>
        <mxCell id="Q5682_6Dmk4dM7YaqGry-89" value="" style="endArrow=none;html=1;rounded=0;exitX=0.5;exitY=1;exitDx=0;exitDy=0;" edge="1" parent="1" source="Q5682_6Dmk4dM7YaqGry-86">
          <mxGeometry width="50" height="50" relative="1" as="geometry">
            <mxPoint x="2359" y="924" as="sourcePoint" />
            <mxPoint x="2359" y="904" as="targetPoint" />
          </mxGeometry>
        </mxCell>
        <mxCell id="Q5682_6Dmk4dM7YaqGry-90" value="A0.1.1" style="text;html=1;align=center;verticalAlign=middle;whiteSpace=wrap;rounded=0;" vertex="1" parent="1">
          <mxGeometry x="2293" y="902" width="60" height="30" as="geometry" />
        </mxCell>
        <mxCell id="Q5682_6Dmk4dM7YaqGry-94" value="Пользователь" style="rounded=0;whiteSpace=wrap;html=1;" vertex="1" parent="1">
          <mxGeometry x="2289" y="726" width="140" height="70" as="geometry" />
        </mxCell>
        <mxCell id="Q5682_6Dmk4dM7YaqGry-95" value="" style="endArrow=none;html=1;rounded=0;exitX=0;exitY=0.25;exitDx=0;exitDy=0;entryX=0.159;entryY=0.009;entryDx=0;entryDy=0;entryPerimeter=0;" edge="1" parent="1" source="Q5682_6Dmk4dM7YaqGry-94" target="Q5682_6Dmk4dM7YaqGry-94">
          <mxGeometry width="50" height="50" relative="1" as="geometry">
            <mxPoint x="2215" y="827" as="sourcePoint" />
            <mxPoint x="2265" y="777" as="targetPoint" />
          </mxGeometry>
        </mxCell>
        <mxCell id="Q5682_6Dmk4dM7YaqGry-96" value="" style="endArrow=none;dashed=1;html=1;rounded=0;exitX=0.5;exitY=0;exitDx=0;exitDy=0;entryX=0.5;entryY=1;entryDx=0;entryDy=0;" edge="1" parent="1">
          <mxGeometry width="50" height="50" relative="1" as="geometry">
            <mxPoint x="2358.8" y="837" as="sourcePoint" />
            <mxPoint x="2358.8" y="797" as="targetPoint" />
          </mxGeometry>
        </mxCell>
        <mxCell id="Q5682_6Dmk4dM7YaqGry-97" value="" style="rounded=0;whiteSpace=wrap;html=1;" vertex="1" parent="1">
          <mxGeometry x="2487" y="862" width="40" height="40" as="geometry" />
        </mxCell>
        <mxCell id="Q5682_6Dmk4dM7YaqGry-98" value="" style="endArrow=none;html=1;rounded=0;exitX=0.25;exitY=1;exitDx=0;exitDy=0;entryX=0.25;entryY=0;entryDx=0;entryDy=0;" edge="1" parent="1" source="Q5682_6Dmk4dM7YaqGry-97" target="Q5682_6Dmk4dM7YaqGry-97">
          <mxGeometry width="50" height="50" relative="1" as="geometry">
            <mxPoint x="2547" y="877" as="sourcePoint" />
            <mxPoint x="2597" y="827" as="targetPoint" />
          </mxGeometry>
        </mxCell>
        <mxCell id="Q5682_6Dmk4dM7YaqGry-99" value="&lt;font face=&quot;Times New Roman&quot;&gt;&lt;span style=&quot;font-size: 15px;&quot;&gt;&lt;b&gt;&amp;amp;&lt;/b&gt;&lt;/span&gt;&lt;/font&gt;" style="text;html=1;align=center;verticalAlign=middle;whiteSpace=wrap;rounded=0;" vertex="1" parent="1">
          <mxGeometry x="2501" y="867" width="20" height="30" as="geometry" />
        </mxCell>
        <mxCell id="Q5682_6Dmk4dM7YaqGry-100" value="" style="endArrow=classic;html=1;rounded=0;exitX=1;exitY=0.5;exitDx=0;exitDy=0;entryX=0;entryY=0.5;entryDx=0;entryDy=0;" edge="1" parent="1" source="Q5682_6Dmk4dM7YaqGry-86" target="Q5682_6Dmk4dM7YaqGry-97">
          <mxGeometry width="50" height="50" relative="1" as="geometry">
            <mxPoint x="2619" y="877" as="sourcePoint" />
            <mxPoint x="2669" y="827" as="targetPoint" />
            <Array as="points">
              <mxPoint x="2459" y="882" />
            </Array>
          </mxGeometry>
        </mxCell>
        <mxCell id="Q5682_6Dmk4dM7YaqGry-101" value="Ввод количества заказуемых номеров отеля" style="rounded=0;whiteSpace=wrap;html=1;" vertex="1" parent="1">
          <mxGeometry x="2569" y="726" width="140" height="90" as="geometry" />
        </mxCell>
        <mxCell id="Q5682_6Dmk4dM7YaqGry-102" value="" style="endArrow=none;html=1;rounded=0;exitX=0;exitY=0.25;exitDx=0;exitDy=0;entryX=0.159;entryY=0.009;entryDx=0;entryDy=0;entryPerimeter=0;" edge="1" parent="1" source="Q5682_6Dmk4dM7YaqGry-101" target="Q5682_6Dmk4dM7YaqGry-101">
          <mxGeometry width="50" height="50" relative="1" as="geometry">
            <mxPoint x="2495" y="836" as="sourcePoint" />
            <mxPoint x="2545" y="786" as="targetPoint" />
          </mxGeometry>
        </mxCell>
        <mxCell id="Q5682_6Dmk4dM7YaqGry-103" value="" style="endArrow=none;html=1;rounded=0;exitX=0;exitY=0.75;exitDx=0;exitDy=0;entryX=1;entryY=0.75;entryDx=0;entryDy=0;" edge="1" parent="1" source="Q5682_6Dmk4dM7YaqGry-101" target="Q5682_6Dmk4dM7YaqGry-101">
          <mxGeometry width="50" height="50" relative="1" as="geometry">
            <mxPoint x="2699" y="626" as="sourcePoint" />
            <mxPoint x="2749" y="576" as="targetPoint" />
          </mxGeometry>
        </mxCell>
        <mxCell id="Q5682_6Dmk4dM7YaqGry-104" value="" style="endArrow=none;html=1;rounded=0;exitX=0.5;exitY=1;exitDx=0;exitDy=0;" edge="1" parent="1" source="Q5682_6Dmk4dM7YaqGry-101">
          <mxGeometry width="50" height="50" relative="1" as="geometry">
            <mxPoint x="2639" y="813" as="sourcePoint" />
            <mxPoint x="2639" y="793" as="targetPoint" />
          </mxGeometry>
        </mxCell>
        <mxCell id="Q5682_6Dmk4dM7YaqGry-105" value="A0.1.2" style="text;html=1;align=center;verticalAlign=middle;whiteSpace=wrap;rounded=0;" vertex="1" parent="1">
          <mxGeometry x="2573" y="791" width="60" height="30" as="geometry" />
        </mxCell>
        <mxCell id="Q5682_6Dmk4dM7YaqGry-106" value="Выбор маршрута" style="rounded=0;whiteSpace=wrap;html=1;" vertex="1" parent="1">
          <mxGeometry x="2569" y="942" width="140" height="90" as="geometry" />
        </mxCell>
        <mxCell id="Q5682_6Dmk4dM7YaqGry-107" value="" style="endArrow=none;html=1;rounded=0;exitX=0;exitY=0.25;exitDx=0;exitDy=0;entryX=0.159;entryY=0.009;entryDx=0;entryDy=0;entryPerimeter=0;" edge="1" parent="1" source="Q5682_6Dmk4dM7YaqGry-106" target="Q5682_6Dmk4dM7YaqGry-106">
          <mxGeometry width="50" height="50" relative="1" as="geometry">
            <mxPoint x="2495" y="1052" as="sourcePoint" />
            <mxPoint x="2545" y="1002" as="targetPoint" />
          </mxGeometry>
        </mxCell>
        <mxCell id="Q5682_6Dmk4dM7YaqGry-108" value="" style="endArrow=none;html=1;rounded=0;exitX=0;exitY=0.75;exitDx=0;exitDy=0;entryX=1;entryY=0.75;entryDx=0;entryDy=0;" edge="1" parent="1" source="Q5682_6Dmk4dM7YaqGry-106" target="Q5682_6Dmk4dM7YaqGry-106">
          <mxGeometry width="50" height="50" relative="1" as="geometry">
            <mxPoint x="2699" y="842" as="sourcePoint" />
            <mxPoint x="2749" y="792" as="targetPoint" />
          </mxGeometry>
        </mxCell>
        <mxCell id="Q5682_6Dmk4dM7YaqGry-109" value="" style="endArrow=none;html=1;rounded=0;exitX=0.5;exitY=1;exitDx=0;exitDy=0;" edge="1" parent="1" source="Q5682_6Dmk4dM7YaqGry-106">
          <mxGeometry width="50" height="50" relative="1" as="geometry">
            <mxPoint x="2639" y="1029" as="sourcePoint" />
            <mxPoint x="2639" y="1009" as="targetPoint" />
          </mxGeometry>
        </mxCell>
        <mxCell id="Q5682_6Dmk4dM7YaqGry-110" value="A0.1.4" style="text;html=1;align=center;verticalAlign=middle;whiteSpace=wrap;rounded=0;" vertex="1" parent="1">
          <mxGeometry x="2573" y="1007" width="60" height="30" as="geometry" />
        </mxCell>
        <mxCell id="Q5682_6Dmk4dM7YaqGry-111" value="" style="endArrow=classic;html=1;rounded=0;exitX=0.75;exitY=0;exitDx=0;exitDy=0;entryX=0;entryY=0.5;entryDx=0;entryDy=0;" edge="1" parent="1" source="Q5682_6Dmk4dM7YaqGry-97" target="Q5682_6Dmk4dM7YaqGry-101">
          <mxGeometry width="50" height="50" relative="1" as="geometry">
            <mxPoint x="2619" y="877" as="sourcePoint" />
            <mxPoint x="2669" y="827" as="targetPoint" />
            <Array as="points">
              <mxPoint x="2517" y="771" />
            </Array>
          </mxGeometry>
        </mxCell>
        <mxCell id="Q5682_6Dmk4dM7YaqGry-112" value="" style="endArrow=classic;html=1;rounded=0;exitX=0.75;exitY=0;exitDx=0;exitDy=0;entryX=0;entryY=0.5;entryDx=0;entryDy=0;" edge="1" parent="1">
          <mxGeometry width="50" height="50" relative="1" as="geometry">
            <mxPoint x="2517" y="902" as="sourcePoint" />
            <mxPoint x="2569" y="993" as="targetPoint" />
            <Array as="points">
              <mxPoint x="2517" y="993" />
            </Array>
          </mxGeometry>
        </mxCell>
        <mxCell id="Q5682_6Dmk4dM7YaqGry-113" value="" style="rounded=0;whiteSpace=wrap;html=1;" vertex="1" parent="1">
          <mxGeometry x="2788" y="862" width="40" height="40" as="geometry" />
        </mxCell>
        <mxCell id="Q5682_6Dmk4dM7YaqGry-114" value="" style="endArrow=none;html=1;rounded=0;exitX=0.25;exitY=1;exitDx=0;exitDy=0;entryX=0.25;entryY=0;entryDx=0;entryDy=0;" edge="1" parent="1" source="Q5682_6Dmk4dM7YaqGry-113" target="Q5682_6Dmk4dM7YaqGry-113">
          <mxGeometry width="50" height="50" relative="1" as="geometry">
            <mxPoint x="2848" y="877" as="sourcePoint" />
            <mxPoint x="2898" y="827" as="targetPoint" />
          </mxGeometry>
        </mxCell>
        <mxCell id="Q5682_6Dmk4dM7YaqGry-115" value="&lt;font face=&quot;Times New Roman&quot;&gt;&lt;span style=&quot;font-size: 15px;&quot;&gt;&lt;b&gt;&amp;amp;&lt;/b&gt;&lt;/span&gt;&lt;/font&gt;" style="text;html=1;align=center;verticalAlign=middle;whiteSpace=wrap;rounded=0;" vertex="1" parent="1">
          <mxGeometry x="2802" y="867" width="20" height="30" as="geometry" />
        </mxCell>
        <mxCell id="Q5682_6Dmk4dM7YaqGry-116" value="" style="endArrow=classic;html=1;rounded=0;exitX=1;exitY=0.5;exitDx=0;exitDy=0;entryX=0.5;entryY=0;entryDx=0;entryDy=0;" edge="1" parent="1" source="Q5682_6Dmk4dM7YaqGry-101" target="Q5682_6Dmk4dM7YaqGry-113">
          <mxGeometry width="50" height="50" relative="1" as="geometry">
            <mxPoint x="2780" y="760.5" as="sourcePoint" />
            <mxPoint x="2728" y="851.5" as="targetPoint" />
            <Array as="points">
              <mxPoint x="2809" y="771" />
            </Array>
          </mxGeometry>
        </mxCell>
        <mxCell id="Q5682_6Dmk4dM7YaqGry-117" value="" style="endArrow=classic;html=1;rounded=0;exitX=1;exitY=0.5;exitDx=0;exitDy=0;entryX=0.5;entryY=0;entryDx=0;entryDy=0;" edge="1" parent="1">
          <mxGeometry width="50" height="50" relative="1" as="geometry">
            <mxPoint x="2710" y="993" as="sourcePoint" />
            <mxPoint x="2809" y="902" as="targetPoint" />
            <Array as="points">
              <mxPoint x="2810" y="993" />
            </Array>
          </mxGeometry>
        </mxCell>
        <mxCell id="Q5682_6Dmk4dM7YaqGry-120" value="" style="endArrow=classic;html=1;rounded=0;exitX=1;exitY=0.5;exitDx=0;exitDy=0;entryX=0;entryY=0.5;entryDx=0;entryDy=0;" edge="1" parent="1" source="Q5682_6Dmk4dM7YaqGry-113">
          <mxGeometry width="50" height="50" relative="1" as="geometry">
            <mxPoint x="2619" y="877" as="sourcePoint" />
            <mxPoint x="2909" y="882" as="targetPoint" />
          </mxGeometry>
        </mxCell>
        <mxCell id="Q5682_6Dmk4dM7YaqGry-121" value="Проверка доступности тура" style="rounded=0;whiteSpace=wrap;html=1;" vertex="1" parent="1">
          <mxGeometry x="2909.5" y="837" width="140" height="90" as="geometry" />
        </mxCell>
        <mxCell id="Q5682_6Dmk4dM7YaqGry-122" value="" style="endArrow=none;html=1;rounded=0;exitX=0;exitY=0.25;exitDx=0;exitDy=0;entryX=0.159;entryY=0.009;entryDx=0;entryDy=0;entryPerimeter=0;" edge="1" parent="1" source="Q5682_6Dmk4dM7YaqGry-121" target="Q5682_6Dmk4dM7YaqGry-121">
          <mxGeometry width="50" height="50" relative="1" as="geometry">
            <mxPoint x="2835.5" y="947" as="sourcePoint" />
            <mxPoint x="2885.5" y="897" as="targetPoint" />
          </mxGeometry>
        </mxCell>
        <mxCell id="Q5682_6Dmk4dM7YaqGry-123" value="" style="endArrow=none;html=1;rounded=0;exitX=0;exitY=0.75;exitDx=0;exitDy=0;entryX=1;entryY=0.75;entryDx=0;entryDy=0;" edge="1" parent="1" source="Q5682_6Dmk4dM7YaqGry-121" target="Q5682_6Dmk4dM7YaqGry-121">
          <mxGeometry width="50" height="50" relative="1" as="geometry">
            <mxPoint x="3039.5" y="737" as="sourcePoint" />
            <mxPoint x="3089.5" y="687" as="targetPoint" />
          </mxGeometry>
        </mxCell>
        <mxCell id="Q5682_6Dmk4dM7YaqGry-124" value="" style="endArrow=none;html=1;rounded=0;exitX=0.5;exitY=1;exitDx=0;exitDy=0;" edge="1" parent="1" source="Q5682_6Dmk4dM7YaqGry-121">
          <mxGeometry width="50" height="50" relative="1" as="geometry">
            <mxPoint x="2979.5" y="924" as="sourcePoint" />
            <mxPoint x="2979.5" y="904" as="targetPoint" />
          </mxGeometry>
        </mxCell>
        <mxCell id="Q5682_6Dmk4dM7YaqGry-125" value="A0.1.5" style="text;html=1;align=center;verticalAlign=middle;whiteSpace=wrap;rounded=0;" vertex="1" parent="1">
          <mxGeometry x="2913.5" y="902" width="60" height="30" as="geometry" />
        </mxCell>
        <mxCell id="Q5682_6Dmk4dM7YaqGry-128" value="Ввод количества людей, отправляющихся в тур" style="rounded=0;whiteSpace=wrap;html=1;" vertex="1" parent="1">
          <mxGeometry x="2569" y="832" width="140" height="90" as="geometry" />
        </mxCell>
        <mxCell id="Q5682_6Dmk4dM7YaqGry-129" value="" style="endArrow=none;html=1;rounded=0;exitX=0;exitY=0.25;exitDx=0;exitDy=0;entryX=0.159;entryY=0.009;entryDx=0;entryDy=0;entryPerimeter=0;" edge="1" parent="1" source="Q5682_6Dmk4dM7YaqGry-128" target="Q5682_6Dmk4dM7YaqGry-128">
          <mxGeometry width="50" height="50" relative="1" as="geometry">
            <mxPoint x="2495" y="942" as="sourcePoint" />
            <mxPoint x="2545" y="892" as="targetPoint" />
          </mxGeometry>
        </mxCell>
        <mxCell id="Q5682_6Dmk4dM7YaqGry-130" value="" style="endArrow=none;html=1;rounded=0;exitX=0;exitY=0.75;exitDx=0;exitDy=0;entryX=1;entryY=0.75;entryDx=0;entryDy=0;" edge="1" parent="1" source="Q5682_6Dmk4dM7YaqGry-128" target="Q5682_6Dmk4dM7YaqGry-128">
          <mxGeometry width="50" height="50" relative="1" as="geometry">
            <mxPoint x="2699" y="732" as="sourcePoint" />
            <mxPoint x="2749" y="682" as="targetPoint" />
          </mxGeometry>
        </mxCell>
        <mxCell id="Q5682_6Dmk4dM7YaqGry-131" value="" style="endArrow=none;html=1;rounded=0;exitX=0.5;exitY=1;exitDx=0;exitDy=0;" edge="1" parent="1" source="Q5682_6Dmk4dM7YaqGry-128">
          <mxGeometry width="50" height="50" relative="1" as="geometry">
            <mxPoint x="2639" y="919" as="sourcePoint" />
            <mxPoint x="2639" y="899" as="targetPoint" />
          </mxGeometry>
        </mxCell>
        <mxCell id="Q5682_6Dmk4dM7YaqGry-132" value="A0.1.3" style="text;html=1;align=center;verticalAlign=middle;whiteSpace=wrap;rounded=0;" vertex="1" parent="1">
          <mxGeometry x="2573" y="897" width="60" height="30" as="geometry" />
        </mxCell>
        <mxCell id="Q5682_6Dmk4dM7YaqGry-134" style="edgeStyle=none;curved=1;rounded=0;orthogonalLoop=1;jettySize=auto;html=1;fontSize=12;startSize=8;endSize=8;entryX=-0.003;entryY=0.554;entryDx=0;entryDy=0;entryPerimeter=0;" edge="1" parent="1" source="Q5682_6Dmk4dM7YaqGry-97" target="Q5682_6Dmk4dM7YaqGry-128">
          <mxGeometry relative="1" as="geometry">
            <mxPoint x="2570" y="882" as="targetPoint" />
          </mxGeometry>
        </mxCell>
        <mxCell id="Q5682_6Dmk4dM7YaqGry-142" value="Отправка заявки на бронирование тура" style="rounded=0;whiteSpace=wrap;html=1;" vertex="1" parent="1">
          <mxGeometry x="3530" y="837" width="140" height="90" as="geometry" />
        </mxCell>
        <mxCell id="Q5682_6Dmk4dM7YaqGry-143" value="" style="endArrow=none;html=1;rounded=0;exitX=0;exitY=0.25;exitDx=0;exitDy=0;entryX=0.159;entryY=0.009;entryDx=0;entryDy=0;entryPerimeter=0;" edge="1" parent="1" source="Q5682_6Dmk4dM7YaqGry-142" target="Q5682_6Dmk4dM7YaqGry-142">
          <mxGeometry width="50" height="50" relative="1" as="geometry">
            <mxPoint x="3456" y="947" as="sourcePoint" />
            <mxPoint x="3506" y="897" as="targetPoint" />
          </mxGeometry>
        </mxCell>
        <mxCell id="Q5682_6Dmk4dM7YaqGry-144" value="" style="endArrow=none;html=1;rounded=0;exitX=0;exitY=0.75;exitDx=0;exitDy=0;entryX=1;entryY=0.75;entryDx=0;entryDy=0;" edge="1" parent="1" source="Q5682_6Dmk4dM7YaqGry-142" target="Q5682_6Dmk4dM7YaqGry-142">
          <mxGeometry width="50" height="50" relative="1" as="geometry">
            <mxPoint x="3660" y="737" as="sourcePoint" />
            <mxPoint x="3710" y="687" as="targetPoint" />
          </mxGeometry>
        </mxCell>
        <mxCell id="Q5682_6Dmk4dM7YaqGry-145" value="" style="endArrow=none;html=1;rounded=0;exitX=0.5;exitY=1;exitDx=0;exitDy=0;" edge="1" parent="1" source="Q5682_6Dmk4dM7YaqGry-142">
          <mxGeometry width="50" height="50" relative="1" as="geometry">
            <mxPoint x="3600" y="924" as="sourcePoint" />
            <mxPoint x="3600" y="904" as="targetPoint" />
          </mxGeometry>
        </mxCell>
        <mxCell id="Q5682_6Dmk4dM7YaqGry-146" value="A0.1.8" style="text;html=1;align=center;verticalAlign=middle;whiteSpace=wrap;rounded=0;" vertex="1" parent="1">
          <mxGeometry x="3534" y="902" width="60" height="30" as="geometry" />
        </mxCell>
        <mxCell id="Q5682_6Dmk4dM7YaqGry-147" value="" style="endArrow=classic;html=1;rounded=0;exitX=1;exitY=0.5;exitDx=0;exitDy=0;" edge="1" parent="1">
          <mxGeometry width="50" height="50" relative="1" as="geometry">
            <mxPoint x="3670" y="881.71" as="sourcePoint" />
            <mxPoint x="3787" y="882" as="targetPoint" />
          </mxGeometry>
        </mxCell>
        <mxCell id="Q5682_6Dmk4dM7YaqGry-148" value="Неподтверждённая&lt;div&gt;&amp;nbsp;бронь тура&lt;/div&gt;" style="text;html=1;align=center;verticalAlign=middle;resizable=0;points=[];autosize=1;strokeColor=none;fillColor=none;" vertex="1" parent="1">
          <mxGeometry x="3666" y="841" width="130" height="40" as="geometry" />
        </mxCell>
        <mxCell id="Q5682_6Dmk4dM7YaqGry-176" value="" style="endArrow=classic;html=1;rounded=0;exitX=1;exitY=0.5;exitDx=0;exitDy=0;entryX=-0.014;entryY=0.479;entryDx=0;entryDy=0;entryPerimeter=0;" edge="1" parent="1" target="Q5682_6Dmk4dM7YaqGry-233">
          <mxGeometry width="50" height="50" relative="1" as="geometry">
            <mxPoint x="3049.5" y="881.81" as="sourcePoint" />
            <mxPoint x="3107.5" y="881.81" as="targetPoint" />
            <Array as="points">
              <mxPoint x="3079.5" y="881.81" />
            </Array>
          </mxGeometry>
        </mxCell>
        <mxCell id="Q5682_6Dmk4dM7YaqGry-233" value="" style="rounded=0;whiteSpace=wrap;html=1;" vertex="1" parent="1">
          <mxGeometry x="3110" y="862.5" width="40" height="40" as="geometry" />
        </mxCell>
        <mxCell id="Q5682_6Dmk4dM7YaqGry-234" value="" style="endArrow=none;html=1;rounded=0;exitX=0.25;exitY=1;exitDx=0;exitDy=0;entryX=0.25;entryY=0;entryDx=0;entryDy=0;" edge="1" parent="1" source="Q5682_6Dmk4dM7YaqGry-233" target="Q5682_6Dmk4dM7YaqGry-233">
          <mxGeometry width="50" height="50" relative="1" as="geometry">
            <mxPoint x="3170" y="877.5" as="sourcePoint" />
            <mxPoint x="3220" y="827.5" as="targetPoint" />
          </mxGeometry>
        </mxCell>
        <mxCell id="Q5682_6Dmk4dM7YaqGry-235" value="&lt;font face=&quot;Times New Roman&quot;&gt;&lt;span style=&quot;font-size: 15px;&quot;&gt;&lt;b&gt;&amp;amp;&lt;/b&gt;&lt;/span&gt;&lt;/font&gt;" style="text;html=1;align=center;verticalAlign=middle;whiteSpace=wrap;rounded=0;" vertex="1" parent="1">
          <mxGeometry x="3124" y="867.5" width="20" height="30" as="geometry" />
        </mxCell>
        <mxCell id="Q5682_6Dmk4dM7YaqGry-236" value="Проверка на вместимость людей в&amp;nbsp; закзазуемых номерах&amp;nbsp;" style="rounded=0;whiteSpace=wrap;html=1;" vertex="1" parent="1">
          <mxGeometry x="3192" y="726.5" width="140" height="90" as="geometry" />
        </mxCell>
        <mxCell id="Q5682_6Dmk4dM7YaqGry-237" value="" style="endArrow=none;html=1;rounded=0;exitX=0;exitY=0.25;exitDx=0;exitDy=0;entryX=0.159;entryY=0.009;entryDx=0;entryDy=0;entryPerimeter=0;" edge="1" parent="1" source="Q5682_6Dmk4dM7YaqGry-236" target="Q5682_6Dmk4dM7YaqGry-236">
          <mxGeometry width="50" height="50" relative="1" as="geometry">
            <mxPoint x="3118" y="836.5" as="sourcePoint" />
            <mxPoint x="3168" y="786.5" as="targetPoint" />
          </mxGeometry>
        </mxCell>
        <mxCell id="Q5682_6Dmk4dM7YaqGry-238" value="" style="endArrow=none;html=1;rounded=0;exitX=0;exitY=0.75;exitDx=0;exitDy=0;entryX=1;entryY=0.75;entryDx=0;entryDy=0;" edge="1" parent="1" source="Q5682_6Dmk4dM7YaqGry-236" target="Q5682_6Dmk4dM7YaqGry-236">
          <mxGeometry width="50" height="50" relative="1" as="geometry">
            <mxPoint x="3322" y="626.5" as="sourcePoint" />
            <mxPoint x="3372" y="576.5" as="targetPoint" />
          </mxGeometry>
        </mxCell>
        <mxCell id="Q5682_6Dmk4dM7YaqGry-239" value="" style="endArrow=none;html=1;rounded=0;exitX=0.5;exitY=1;exitDx=0;exitDy=0;" edge="1" parent="1" source="Q5682_6Dmk4dM7YaqGry-236">
          <mxGeometry width="50" height="50" relative="1" as="geometry">
            <mxPoint x="3262" y="813.5" as="sourcePoint" />
            <mxPoint x="3262" y="793.5" as="targetPoint" />
          </mxGeometry>
        </mxCell>
        <mxCell id="Q5682_6Dmk4dM7YaqGry-240" value="A0.1.6" style="text;html=1;align=center;verticalAlign=middle;whiteSpace=wrap;rounded=0;" vertex="1" parent="1">
          <mxGeometry x="3196" y="791.5" width="60" height="30" as="geometry" />
        </mxCell>
        <mxCell id="Q5682_6Dmk4dM7YaqGry-241" value="Проверка на доступность мест в туре&amp;nbsp;" style="rounded=0;whiteSpace=wrap;html=1;" vertex="1" parent="1">
          <mxGeometry x="3192" y="942.5" width="140" height="90" as="geometry" />
        </mxCell>
        <mxCell id="Q5682_6Dmk4dM7YaqGry-242" value="" style="endArrow=none;html=1;rounded=0;exitX=0;exitY=0.25;exitDx=0;exitDy=0;entryX=0.159;entryY=0.009;entryDx=0;entryDy=0;entryPerimeter=0;" edge="1" parent="1" source="Q5682_6Dmk4dM7YaqGry-241" target="Q5682_6Dmk4dM7YaqGry-241">
          <mxGeometry width="50" height="50" relative="1" as="geometry">
            <mxPoint x="3118" y="1052.5" as="sourcePoint" />
            <mxPoint x="3168" y="1002.5" as="targetPoint" />
          </mxGeometry>
        </mxCell>
        <mxCell id="Q5682_6Dmk4dM7YaqGry-243" value="" style="endArrow=none;html=1;rounded=0;exitX=0;exitY=0.75;exitDx=0;exitDy=0;entryX=1;entryY=0.75;entryDx=0;entryDy=0;" edge="1" parent="1" source="Q5682_6Dmk4dM7YaqGry-241" target="Q5682_6Dmk4dM7YaqGry-241">
          <mxGeometry width="50" height="50" relative="1" as="geometry">
            <mxPoint x="3322" y="842.5" as="sourcePoint" />
            <mxPoint x="3372" y="792.5" as="targetPoint" />
          </mxGeometry>
        </mxCell>
        <mxCell id="Q5682_6Dmk4dM7YaqGry-244" value="" style="endArrow=none;html=1;rounded=0;exitX=0.5;exitY=1;exitDx=0;exitDy=0;" edge="1" parent="1" source="Q5682_6Dmk4dM7YaqGry-241">
          <mxGeometry width="50" height="50" relative="1" as="geometry">
            <mxPoint x="3262" y="1029.5" as="sourcePoint" />
            <mxPoint x="3262" y="1009.5" as="targetPoint" />
          </mxGeometry>
        </mxCell>
        <mxCell id="Q5682_6Dmk4dM7YaqGry-245" value="A0.1.7" style="text;html=1;align=center;verticalAlign=middle;whiteSpace=wrap;rounded=0;" vertex="1" parent="1">
          <mxGeometry x="3196" y="1007.5" width="60" height="30" as="geometry" />
        </mxCell>
        <mxCell id="Q5682_6Dmk4dM7YaqGry-246" value="" style="endArrow=classic;html=1;rounded=0;exitX=0.75;exitY=0;exitDx=0;exitDy=0;entryX=0;entryY=0.5;entryDx=0;entryDy=0;" edge="1" parent="1" source="Q5682_6Dmk4dM7YaqGry-233" target="Q5682_6Dmk4dM7YaqGry-236">
          <mxGeometry width="50" height="50" relative="1" as="geometry">
            <mxPoint x="3242" y="877.5" as="sourcePoint" />
            <mxPoint x="3292" y="827.5" as="targetPoint" />
            <Array as="points">
              <mxPoint x="3140" y="771.5" />
            </Array>
          </mxGeometry>
        </mxCell>
        <mxCell id="Q5682_6Dmk4dM7YaqGry-247" value="" style="endArrow=classic;html=1;rounded=0;exitX=0.75;exitY=0;exitDx=0;exitDy=0;entryX=0;entryY=0.5;entryDx=0;entryDy=0;" edge="1" parent="1">
          <mxGeometry width="50" height="50" relative="1" as="geometry">
            <mxPoint x="3140" y="902.5" as="sourcePoint" />
            <mxPoint x="3192" y="993.5" as="targetPoint" />
            <Array as="points">
              <mxPoint x="3140" y="993.5" />
            </Array>
          </mxGeometry>
        </mxCell>
        <mxCell id="Q5682_6Dmk4dM7YaqGry-248" value="" style="rounded=0;whiteSpace=wrap;html=1;" vertex="1" parent="1">
          <mxGeometry x="3411" y="862.5" width="40" height="40" as="geometry" />
        </mxCell>
        <mxCell id="Q5682_6Dmk4dM7YaqGry-249" value="" style="endArrow=none;html=1;rounded=0;exitX=0.25;exitY=1;exitDx=0;exitDy=0;entryX=0.25;entryY=0;entryDx=0;entryDy=0;" edge="1" parent="1" source="Q5682_6Dmk4dM7YaqGry-248" target="Q5682_6Dmk4dM7YaqGry-248">
          <mxGeometry width="50" height="50" relative="1" as="geometry">
            <mxPoint x="3471" y="877.5" as="sourcePoint" />
            <mxPoint x="3521" y="827.5" as="targetPoint" />
          </mxGeometry>
        </mxCell>
        <mxCell id="Q5682_6Dmk4dM7YaqGry-250" value="&lt;font face=&quot;Times New Roman&quot;&gt;&lt;span style=&quot;font-size: 15px;&quot;&gt;&lt;b&gt;&amp;amp;&lt;/b&gt;&lt;/span&gt;&lt;/font&gt;" style="text;html=1;align=center;verticalAlign=middle;whiteSpace=wrap;rounded=0;" vertex="1" parent="1">
          <mxGeometry x="3425" y="867.5" width="20" height="30" as="geometry" />
        </mxCell>
        <mxCell id="Q5682_6Dmk4dM7YaqGry-251" value="" style="endArrow=classic;html=1;rounded=0;exitX=1;exitY=0.5;exitDx=0;exitDy=0;entryX=0.5;entryY=0;entryDx=0;entryDy=0;" edge="1" parent="1" source="Q5682_6Dmk4dM7YaqGry-236" target="Q5682_6Dmk4dM7YaqGry-248">
          <mxGeometry width="50" height="50" relative="1" as="geometry">
            <mxPoint x="3403" y="761" as="sourcePoint" />
            <mxPoint x="3351" y="852" as="targetPoint" />
            <Array as="points">
              <mxPoint x="3432" y="771.5" />
            </Array>
          </mxGeometry>
        </mxCell>
        <mxCell id="Q5682_6Dmk4dM7YaqGry-252" value="" style="endArrow=classic;html=1;rounded=0;exitX=1;exitY=0.5;exitDx=0;exitDy=0;entryX=0.5;entryY=0;entryDx=0;entryDy=0;" edge="1" parent="1">
          <mxGeometry width="50" height="50" relative="1" as="geometry">
            <mxPoint x="3333" y="993.5" as="sourcePoint" />
            <mxPoint x="3432" y="902.5" as="targetPoint" />
            <Array as="points">
              <mxPoint x="3433" y="993.5" />
            </Array>
          </mxGeometry>
        </mxCell>
        <mxCell id="Q5682_6Dmk4dM7YaqGry-262" style="edgeStyle=none;curved=1;rounded=0;orthogonalLoop=1;jettySize=auto;html=1;fontSize=12;startSize=8;endSize=8;entryX=0;entryY=0.5;entryDx=0;entryDy=0;" edge="1" parent="1" target="Q5682_6Dmk4dM7YaqGry-113">
          <mxGeometry relative="1" as="geometry">
            <mxPoint x="2709" y="881.81" as="sourcePoint" />
            <mxPoint x="2751" y="881.81" as="targetPoint" />
          </mxGeometry>
        </mxCell>
        <mxCell id="Q5682_6Dmk4dM7YaqGry-265" value="" style="endArrow=classic;html=1;rounded=0;exitX=1;exitY=0.5;exitDx=0;exitDy=0;entryX=0;entryY=0.5;entryDx=0;entryDy=0;" edge="1" parent="1" target="Q5682_6Dmk4dM7YaqGry-142">
          <mxGeometry width="50" height="50" relative="1" as="geometry">
            <mxPoint x="3451" y="881.7" as="sourcePoint" />
            <mxPoint x="3532" y="881.7" as="targetPoint" />
          </mxGeometry>
        </mxCell>
      </root>
    </mxGraphModel>
  </diagram>
</mxfile>
